<svg width="32" height="32" viewBox="0 0 32 32" fill="none" xmlns="http://www.w3.org/2000/svg">
<rect x="-0.25" y="0.25" width="31.5" height="31.5" rx="15.75" transform="matrix(-1 0 0 1 31.5 0)" fill="white" stroke="#D5D5DC" stroke-width="0.5"/>
<path d="M13.3599 23.3418L19.6798 16.6548C19.8856 16.4329 20 16.1415 20 15.8388C20 15.5362 19.8856 15.2447 19.6798 15.0228L13.3609 8.33783C13.2625 8.2313 13.1431 8.14629 13.0102 8.08815C12.8773 8.03001 12.7339 8 12.5889 8C12.4438 8 12.3004 8.03001 12.1675 8.08815C12.0347 8.14629 11.9153 8.2313 11.8169 8.33783C11.6108 8.55978 11.4962 8.85145 11.4962 9.15432C11.4962 9.4572 11.6108 9.74887 11.8169 9.97083L17.3639 15.8398L11.8169 21.7098C11.6108 21.9318 11.4962 22.2235 11.4962 22.5263C11.4962 22.8292 11.6108 23.1209 11.8169 23.3428C11.9153 23.4493 12.0346 23.5342 12.1674 23.5922C12.3002 23.6503 12.4436 23.6802 12.5886 23.6801C12.7335 23.68 12.8769 23.6499 13.0096 23.5917C13.1424 23.5335 13.2616 23.4484 13.3599 23.3418Z" fill="#696973"/>
</svg>
