<svg width="32" height="32" viewBox="0 0 32 32" fill="none" xmlns="http://www.w3.org/2000/svg">
<rect x="0.25" y="0.25" width="31.5" height="31.5" rx="15.75" fill="white" stroke="#D5D5DC" stroke-width="0.5"/>
<path d="M18.6401 23.3418L12.3202 16.6548C12.1144 16.4329 12 16.1415 12 15.8388C12 15.5362 12.1144 15.2447 12.3202 15.0228L18.6391 8.33783C18.7375 8.2313 18.8569 8.14629 18.9898 8.08815C19.1227 8.03001 19.2661 8 19.4111 8C19.5562 8 19.6996 8.03001 19.8325 8.08815C19.9653 8.14629 20.0847 8.2313 20.1831 8.33783C20.3892 8.55978 20.5038 8.85145 20.5038 9.15432C20.5038 9.4572 20.3892 9.74887 20.1831 9.97083L14.6361 15.8398L20.1831 21.7098C20.3892 21.9318 20.5038 22.2235 20.5038 22.5263C20.5038 22.8292 20.3892 23.1209 20.1831 23.3428C20.0847 23.4493 19.9654 23.5342 19.8326 23.5922C19.6998 23.6503 19.5564 23.6802 19.4114 23.6801C19.2665 23.68 19.1231 23.6499 18.9904 23.5917C18.8576 23.5335 18.7384 23.4484 18.6401 23.3418Z" fill="#696973"/>
</svg>
