<svg width="34" height="34" viewBox="0 0 34 34" fill="none" xmlns="http://www.w3.org/2000/svg">
<path d="M3.17671 22.8199L1.80971 27.9199L1.05171 30.7468C0.982774 31.0041 0.982762 31.2749 1.05168 31.5322C1.1206 31.7894 1.25601 32.0239 1.44432 32.2122C1.63263 32.4005 1.86718 32.536 2.12441 32.6049C2.38165 32.6738 2.65249 32.6738 2.90971 32.6049L5.73671 31.8469L11.1007 30.4099L31.8007 9.70984C32.1372 9.37242 32.3261 8.91536 32.3261 8.43885C32.3261 7.96234 32.1372 7.50527 31.8007 7.16785L26.4937 1.86084C26.3261 1.69388 26.1273 1.56157 25.9086 1.4715C25.6899 1.38143 25.4555 1.33539 25.219 1.33594C24.9824 1.3365 24.7483 1.3837 24.53 1.4748C24.3117 1.5659 24.1135 1.69914 23.9467 1.86689L3.17671 22.8199Z" stroke="#92929C" stroke-width="1.607" stroke-miterlimit="10"/>
<path d="M11.0813 30.4329L3.44434 22.7959" stroke="#92929C" stroke-width="1.607" stroke-miterlimit="10"/>
</svg>
