<svg width="33" height="33" viewBox="0 0 33 33" fill="none" xmlns="http://www.w3.org/2000/svg">
<path d="M16.1873 22.6478C19.3817 22.6478 21.9713 20.0582 21.9713 16.8638C21.9713 13.6694 19.3817 11.0798 16.1873 11.0798C12.9929 11.0798 10.4033 13.6694 10.4033 16.8638C10.4033 20.0582 12.9929 22.6478 16.1873 22.6478Z" stroke="#92929C" stroke-width="1.607" stroke-miterlimit="10"/>
<path d="M31.369 19.1819V14.5439C31.369 14.1991 31.232 13.8684 30.9882 13.6246C30.7444 13.3808 30.4138 13.2439 30.069 13.2439H28.065C27.8095 13.2434 27.5598 13.1671 27.3477 13.0247C27.1355 12.8823 26.9703 12.6802 26.873 12.4439L26.866 12.4279C26.7662 12.1913 26.7391 11.9304 26.7883 11.6783C26.8374 11.4263 26.9606 11.1946 27.142 11.0129L28.562 9.5929C28.8038 9.34937 28.9395 9.02008 28.9395 8.67688C28.9395 8.33368 28.8038 8.00445 28.562 7.76093L25.283 4.4809C25.0394 4.23877 24.7099 4.10284 24.3665 4.10284C24.0231 4.10284 23.6936 4.23877 23.45 4.4809L22.03 5.90088C21.8483 6.08229 21.6166 6.20548 21.3646 6.25464C21.1125 6.3038 20.8516 6.2767 20.615 6.17688L20.599 6.16992C20.3627 6.07262 20.1606 5.90743 20.0182 5.69525C19.8758 5.48308 19.7995 5.23343 19.799 4.97791V2.96991C19.799 2.62513 19.662 2.29446 19.4182 2.05066C19.1744 1.80686 18.8438 1.66992 18.499 1.66992H13.868C13.5232 1.66992 13.1926 1.80686 12.9488 2.05066C12.705 2.29446 12.568 2.62513 12.568 2.96991V4.97791C12.5675 5.23343 12.4912 5.48308 12.3488 5.69525C12.2064 5.90743 12.0043 6.07262 11.768 6.16992L11.752 6.17688C11.5154 6.2767 11.2545 6.3038 11.0024 6.25464C10.7504 6.20548 10.5187 6.08229 10.337 5.90088L8.917 4.4809C8.67343 4.23877 8.34394 4.10284 8.0005 4.10284C7.65706 4.10284 7.32757 4.23877 7.084 4.4809L3.804 7.76093C3.68354 7.88112 3.58797 8.02385 3.52276 8.18103C3.45755 8.33821 3.42399 8.50671 3.42399 8.67688C3.42399 8.84705 3.45755 9.01555 3.52276 9.17273C3.58797 9.32991 3.68354 9.4727 3.804 9.5929L5.224 11.0129C5.40524 11.1947 5.5282 11.4264 5.57718 11.6785C5.62616 11.9305 5.59894 12.1914 5.499 12.4279L5.493 12.4439C5.39569 12.6802 5.23051 12.8823 5.01834 13.0247C4.80616 13.1671 4.55653 13.2434 4.301 13.2439H2.3C1.95522 13.2439 1.62456 13.3808 1.38076 13.6246C1.13696 13.8684 1 14.1991 1 14.5439V19.1819C1 19.5267 1.13696 19.8573 1.38076 20.1011C1.62456 20.3449 1.95522 20.4819 2.3 20.4819H4.309C4.56453 20.4824 4.81416 20.5587 5.02634 20.7011C5.23851 20.8435 5.40369 21.0456 5.501 21.2819L5.507 21.2979C5.60694 21.5344 5.63416 21.7953 5.58518 22.0473C5.5362 22.2993 5.41324 22.531 5.232 22.7129L3.812 24.1329C3.56987 24.3764 3.43397 24.7059 3.43397 25.0494C3.43397 25.3928 3.56987 25.7223 3.812 25.9659L7.092 29.2459C7.33557 29.488 7.66506 29.6239 8.0085 29.6239C8.35194 29.6239 8.68143 29.488 8.925 29.2459L10.345 27.8259C10.5267 27.6445 10.7584 27.5213 11.0104 27.4722C11.2625 27.423 11.5234 27.4501 11.76 27.5499L11.776 27.5559C12.0124 27.6533 12.2147 27.8186 12.3571 28.031C12.4995 28.2434 12.5757 28.4932 12.576 28.7489V30.7569C12.576 31.1017 12.713 31.4324 12.9568 31.6761C13.2006 31.9199 13.5312 32.0569 13.876 32.0569H18.514C18.8588 32.0569 19.1894 31.9199 19.4332 31.6761C19.677 31.4324 19.814 31.1017 19.814 30.7569V28.7489C19.8143 28.4932 19.8905 28.2434 20.0329 28.031C20.1753 27.8186 20.3776 27.6533 20.614 27.5559L20.63 27.5499C20.8666 27.4501 21.1275 27.423 21.3796 27.4722C21.6316 27.5213 21.8633 27.6445 22.045 27.8259L23.465 29.2459C23.7086 29.488 24.0381 29.6239 24.3815 29.6239C24.7249 29.6239 25.0544 29.488 25.298 29.2459L28.577 25.9659C28.8191 25.7223 28.955 25.3928 28.955 25.0494C28.955 24.7059 28.8191 24.3764 28.577 24.1329L27.157 22.7129C26.9756 22.5312 26.8524 22.2995 26.8033 22.0475C26.7541 21.7955 26.7812 21.5345 26.881 21.2979L26.888 21.2819C26.9853 21.0456 27.1505 20.8435 27.3627 20.7011C27.5748 20.5587 27.8245 20.4824 28.08 20.4819H30.088C30.4295 20.4769 30.7553 20.3377 30.995 20.0945C31.2347 19.8512 31.369 19.5234 31.369 19.1819V19.1819Z" stroke="#92929C" stroke-width="1.607" stroke-miterlimit="10"/>
</svg>
