<svg width="31" height="35" viewBox="0 0 31 35" fill="none" xmlns="http://www.w3.org/2000/svg">
<path d="M29.3865 12.4641L17.2455 1.54008C16.8416 1.17696 16.3181 0.975246 15.7749 0.973401C15.2318 0.971557 14.7069 1.16971 14.3005 1.53007L1.97252 12.4631C1.73867 12.6705 1.55145 12.9252 1.42321 13.2103C1.29497 13.4954 1.22861 13.8045 1.22852 14.1171V31.3331C1.22852 31.6234 1.28571 31.9108 1.39684 32.179C1.50796 32.4472 1.67084 32.6909 1.87616 32.8961C2.08149 33.1014 2.32523 33.2641 2.59348 33.3751C2.86172 33.4861 3.14921 33.5432 3.43952 33.5431H10.9535C11.1234 33.5432 11.2915 33.5099 11.4485 33.4449C11.6054 33.38 11.748 33.2847 11.8681 33.1647C11.9882 33.0446 12.0834 32.902 12.1484 32.745C12.2133 32.5881 12.2466 32.4199 12.2465 32.2501V27.1831C12.2281 26.2815 12.5527 25.4067 13.1547 24.7354C13.7568 24.0641 14.5913 23.6465 15.4895 23.5671C15.9544 23.5422 16.4195 23.6123 16.8564 23.7731C17.2934 23.9339 17.693 24.182 18.0308 24.5023C18.3687 24.8226 18.6378 25.2084 18.8217 25.6361C19.0056 26.0638 19.1005 26.5245 19.1005 26.9901V32.2471C19.1004 32.4169 19.1337 32.5851 19.1987 32.742C19.2636 32.899 19.3588 33.0416 19.4789 33.1617C19.599 33.2818 19.7416 33.377 19.8985 33.4419C20.0555 33.5068 20.2237 33.5402 20.3935 33.5401H27.9075C28.1978 33.5402 28.4853 33.4831 28.7536 33.3721C29.0218 33.2611 29.2655 33.0984 29.4709 32.8931C29.6762 32.6879 29.8391 32.4442 29.9502 32.176C30.0613 31.9078 30.1185 31.6204 30.1185 31.3301V14.1071C30.1184 13.7972 30.0532 13.4908 29.9271 13.2078C29.801 12.9247 29.6168 12.6713 29.3865 12.4641V12.4641Z" stroke="#92929C" stroke-width="1.607" stroke-miterlimit="10"/>
</svg>
