<svg width="34" height="32" viewBox="0 0 34 32" fill="none" xmlns="http://www.w3.org/2000/svg">
<path d="M18.697 2.21912L21.88 8.66815C22.036 8.98419 22.2666 9.25753 22.5518 9.46466C22.8369 9.67179 23.1682 9.80648 23.517 9.85712L30.634 10.8911C31.0354 10.9494 31.4125 11.1189 31.7226 11.3804C32.0328 11.6418 32.2635 11.9848 32.3889 12.3706C32.5143 12.7564 32.5292 13.1695 32.432 13.5634C32.3349 13.9572 32.1294 14.316 31.839 14.5991L26.689 19.6191C26.4365 19.8651 26.2477 20.1687 26.1388 20.5039C26.0299 20.8391 26.0043 21.1958 26.064 21.5432L27.279 28.6321C27.3477 29.0319 27.3032 29.443 27.1504 29.8188C26.9976 30.1946 26.7427 30.5201 26.4145 30.7585C26.0863 30.997 25.6979 31.1387 25.2933 31.1678C24.8886 31.1969 24.4839 31.1122 24.125 30.9232L17.76 27.5771C17.4479 27.4131 17.1006 27.3273 16.748 27.3273C16.3954 27.3273 16.0481 27.4131 15.736 27.5771L9.371 30.9232C9.01205 31.1122 8.60737 31.1969 8.20274 31.1678C7.79812 31.1387 7.40972 30.997 7.0815 30.7585C6.75328 30.5201 6.49835 30.1946 6.34557 29.8188C6.19279 29.443 6.14825 29.0319 6.217 28.6321L7.432 21.5432C7.49148 21.1958 7.46567 20.8392 7.3568 20.504C7.24793 20.1689 7.05925 19.8652 6.807 19.6191L1.657 14.5991C1.36666 14.3163 1.16117 13.9579 1.06374 13.5645C0.966309 13.171 0.980814 12.7581 1.10562 12.3725C1.23042 11.9869 1.46055 11.6438 1.77003 11.382C2.0795 11.1203 2.456 10.9502 2.857 10.8911L9.974 9.85712C10.3228 9.80648 10.6541 9.67179 10.9392 9.46466C11.2244 9.25753 11.455 8.98419 11.611 8.66815L14.794 2.21912C14.9728 1.85398 15.2505 1.54635 15.5955 1.33118C15.9405 1.11601 16.3389 1.00195 16.7455 1.00195C17.1521 1.00195 17.5505 1.11601 17.8955 1.33118C18.2405 1.54635 18.5182 1.85398 18.697 2.21912V2.21912Z" stroke="#92929C" stroke-width="1.607" stroke-miterlimit="10"/>
</svg>
