<svg width="34" height="35" viewBox="0 0 34 35" fill="none" xmlns="http://www.w3.org/2000/svg">
<path d="M17.4704 33.942C8.37372 33.942 0.999405 26.5677 0.999405 17.471C0.999405 8.37432 8.37372 1 17.4704 1C26.5671 1 33.9414 8.37432 33.9414 17.471C33.9414 26.5677 26.5671 33.942 17.4704 33.942Z" fill="white" stroke="#D5D5DC" stroke-width="0.5" stroke-miterlimit="10"/>
<path d="M18.8571 24.9729L12.5381 18.2859C12.3323 18.064 12.2179 17.7726 12.2179 17.4699C12.2179 17.1673 12.3323 16.8758 12.5381 16.6539L18.8571 9.96893C18.9555 9.8624 19.0749 9.7774 19.2077 9.71926C19.3406 9.66112 19.484 9.6311 19.6291 9.6311C19.7741 9.6311 19.9175 9.66112 20.0504 9.71926C20.1833 9.7774 20.3026 9.8624 20.401 9.96893C20.6071 10.1909 20.7217 10.4826 20.7217 10.7854C20.7217 11.0883 20.6071 11.38 20.401 11.6019L14.854 17.4709L20.4021 23.3409C20.6081 23.5629 20.7227 23.8546 20.7227 24.1574C20.7227 24.4603 20.6081 24.752 20.4021 24.9739C20.3036 25.0807 20.1842 25.1659 20.0512 25.2241C19.9182 25.2823 19.7745 25.3124 19.6293 25.3123C19.4841 25.3122 19.3405 25.282 19.2076 25.2236C19.0747 25.1652 18.9553 25.0798 18.8571 24.9729Z" fill="#B5B5BD"/>
</svg>
