<svg width="19" height="23" viewBox="0 0 19 23" fill="none" xmlns="http://www.w3.org/2000/svg">
<path d="M5.47632 7.82599H1.73633C1.65451 7.82599 1.57345 7.80987 1.49786 7.77856C1.42228 7.74726 1.35363 7.70141 1.29578 7.64355C1.23793 7.5857 1.19201 7.51699 1.16071 7.44141C1.1294 7.36582 1.11328 7.28482 1.11328 7.203V3.46301C1.11328 3.13563 1.17782 2.81144 1.3031 2.50897C1.42839 2.20651 1.61201 1.93169 1.84351 1.7002C2.075 1.4687 2.34982 1.28508 2.65228 1.15979C2.95475 1.03451 3.27894 0.969971 3.60632 0.969971H15.4473C15.7747 0.969971 16.0988 1.03451 16.4013 1.15979C16.7038 1.28508 16.9786 1.4687 17.2101 1.7002C17.4416 1.93169 17.6253 2.20651 17.7505 2.50897C17.8758 2.81144 17.9403 3.13563 17.9403 3.46301V20.863C17.9404 20.9803 17.9073 21.0954 17.8448 21.1948C17.7824 21.2941 17.6932 21.3739 17.5875 21.4247C17.4817 21.4756 17.3637 21.4956 17.2471 21.4824C17.1305 21.4692 17.02 21.4233 16.9283 21.35L12.0973 17.486C11.9869 17.3977 11.8497 17.3496 11.7083 17.3496C11.5669 17.3496 11.4297 17.3977 11.3193 17.486L6.48828 21.35C6.39661 21.4233 6.28611 21.4692 6.16949 21.4824C6.05288 21.4956 5.93492 21.4756 5.82916 21.4247C5.72341 21.3739 5.63414 21.2941 5.57172 21.1948C5.50929 21.0954 5.47625 20.9803 5.47632 20.863V2.84003C5.47632 2.34407 5.27928 1.86839 4.92859 1.5177C4.5779 1.16701 4.10228 0.969971 3.60632 0.969971" stroke="#92929C" stroke-width="1.197" stroke-linejoin="round"/>
</svg>
