<svg width="16" height="19" viewBox="0 0 16 19" fill="none" xmlns="http://www.w3.org/2000/svg">
<path d="M7.64172 18.021C11.3724 18.021 14.3967 14.9967 14.3967 11.266C14.3967 7.5353 11.3724 4.51099 7.64172 4.51099C3.91104 4.51099 0.886719 7.5353 0.886719 11.266C0.886719 14.9967 3.91104 18.021 7.64172 18.021Z" stroke="#92929C" stroke-width="1.196" stroke-linejoin="round"/>
<path d="M8.60636 1.13794H6.67536C6.40916 1.13794 6.19336 1.35374 6.19336 1.61994V2.58494C6.19336 2.85114 6.40916 3.06694 6.67536 3.06694H8.60636C8.87256 3.06694 9.08836 2.85114 9.08836 2.58494V1.61994C9.08836 1.35374 8.87256 1.13794 8.60636 1.13794Z" stroke="#92929C" stroke-width="1.196" stroke-linejoin="round"/>
<path d="M7.64062 3.06689V4.51389" stroke="#92929C" stroke-width="1.196" stroke-linejoin="round"/>
<path d="M13.0996 3.76294L15.1466 5.80894" stroke="#92929C" stroke-width="1.196" stroke-linejoin="round"/>
<path d="M14.124 4.78589L12.418 6.49089" stroke="#92929C" stroke-width="1.196" stroke-linejoin="round"/>
<path d="M7.64062 11.2658V6.9248" stroke="#92929C" stroke-width="1.196" stroke-linejoin="round"/>
<path d="M7.64176 12.2308C8.17471 12.2308 8.60676 11.7987 8.60676 11.2658C8.60676 10.7328 8.17471 10.3008 7.64176 10.3008C7.1088 10.3008 6.67676 10.7328 6.67676 11.2658C6.67676 11.7987 7.1088 12.2308 7.64176 12.2308Z" stroke="#92929C" stroke-width="1.196" stroke-linejoin="round"/>
</svg>
