<svg width="23" height="23" viewBox="0 0 23 23" fill="none" xmlns="http://www.w3.org/2000/svg">
<path d="M4.7277 15.3341C6.7104 15.3341 8.3177 13.7268 8.3177 11.7441C8.3177 9.76135 6.7104 8.15405 4.7277 8.15405C2.74499 8.15405 1.1377 9.76135 1.1377 11.7441C1.1377 13.7268 2.74499 15.3341 4.7277 15.3341Z" stroke="#92929C" stroke-width="1.197" stroke-linejoin="round"/>
<path d="M17.8898 8.753C19.8725 8.753 21.4798 7.1457 21.4798 5.163C21.4798 3.1803 19.8725 1.573 17.8898 1.573C15.9071 1.573 14.2998 3.1803 14.2998 5.163C14.2998 7.1457 15.9071 8.753 17.8898 8.753Z" stroke="#92929C" stroke-width="1.197" stroke-linejoin="round"/>
<path d="M17.8898 21.9149C19.8725 21.9149 21.4798 20.3076 21.4798 18.3249C21.4798 16.3422 19.8725 14.7349 17.8898 14.7349C15.9071 14.7349 14.2998 16.3422 14.2998 18.3249C14.2998 20.3076 15.9071 21.9149 17.8898 21.9149Z" stroke="#92929C" stroke-width="1.197" stroke-linejoin="round"/>
<path d="M8.31641 13.5381L14.2994 16.5291" stroke="#92929C" stroke-width="1.197" stroke-linejoin="round"/>
<path d="M14.2994 6.95703L8.31641 9.94803" stroke="#92929C" stroke-width="1.197" stroke-linejoin="round"/>
</svg>
