<svg width="109" height="20" viewBox="0 0 109 20" fill="none" xmlns="http://www.w3.org/2000/svg">
<path d="M108.251 19.222H0.419922V0.883057H108.251L103.73 10.053L108.251 19.222Z" fill="#9DA0A3"/>
<path d="M30.1438 9.88442H29.061C29.0412 9.74432 29.0008 9.61988 28.9398 9.5111C28.8789 9.40067 28.8006 9.30672 28.705 9.22926C28.6094 9.15179 28.4989 9.09246 28.3737 9.05125C28.2501 9.01005 28.1157 8.98944 27.9707 8.98944C27.7086 8.98944 27.4804 9.05455 27.2859 9.18475C27.0914 9.31331 26.9406 9.50121 26.8334 9.74844C26.7263 9.99402 26.6727 10.2923 26.6727 10.6434C26.6727 11.0044 26.7263 11.3076 26.8334 11.5532C26.9422 11.7988 27.0939 11.9842 27.2883 12.1095C27.4828 12.2348 27.7078 12.2974 27.9633 12.2974C28.1067 12.2974 28.2394 12.2784 28.3613 12.2405C28.4849 12.2026 28.5945 12.1474 28.6901 12.0749C28.7857 12.0007 28.8648 11.9109 28.9275 11.8054C28.9918 11.6999 29.0363 11.5796 29.061 11.4444L30.1438 11.4494C30.1158 11.6818 30.0458 11.9059 29.9337 12.1218C29.8233 12.3361 29.6741 12.5281 29.4862 12.6979C29.3 12.866 29.0775 12.9995 28.8187 13.0984C28.5616 13.1957 28.2707 13.2443 27.946 13.2443C27.4944 13.2443 27.0906 13.1421 26.7345 12.9377C26.3802 12.7333 26.1 12.4375 25.894 12.0502C25.6896 11.6628 25.5874 11.1939 25.5874 10.6434C25.5874 10.0913 25.6912 9.62153 25.8989 9.2342C26.1066 8.84687 26.3884 8.55185 26.7444 8.34912C27.1004 8.14474 27.501 8.04255 27.946 8.04255C28.2393 8.04255 28.5113 8.08376 28.7618 8.16617C29.014 8.24858 29.2373 8.3689 29.4318 8.52712C29.6263 8.6837 29.7845 8.87572 29.9065 9.10317C30.0301 9.33062 30.1092 9.59104 30.1438 9.88442ZM35.5644 10.6434C35.5644 11.1956 35.4597 11.6653 35.2504 12.0526C35.0427 12.44 34.7592 12.7358 34.3999 12.9402C34.0423 13.1429 33.6401 13.2443 33.1934 13.2443C32.7435 13.2443 32.3397 13.1421 31.982 12.9377C31.6243 12.7333 31.3417 12.4375 31.134 12.0502C30.9263 11.6628 30.8225 11.1939 30.8225 10.6434C30.8225 10.0913 30.9263 9.62153 31.134 9.2342C31.3417 8.84687 31.6243 8.55185 31.982 8.34912C32.3397 8.14474 32.7435 8.04255 33.1934 8.04255C33.6401 8.04255 34.0423 8.14474 34.3999 8.34912C34.7592 8.55185 35.0427 8.84687 35.2504 9.2342C35.4597 9.62153 35.5644 10.0913 35.5644 10.6434ZM34.479 10.6434C34.479 10.2858 34.4255 9.98413 34.3183 9.73855C34.2128 9.49297 34.0637 9.30672 33.8708 9.17981C33.678 9.0529 33.4522 8.98944 33.1934 8.98944C32.9347 8.98944 32.7089 9.0529 32.516 9.17981C32.3232 9.30672 32.1732 9.49297 32.0661 9.73855C31.9606 9.98413 31.9078 10.2858 31.9078 10.6434C31.9078 11.0011 31.9606 11.3027 32.0661 11.5483C32.1732 11.7939 32.3232 11.9801 32.516 12.107C32.7089 12.2339 32.9347 12.2974 33.1934 12.2974C33.4522 12.2974 33.678 12.2339 33.8708 12.107C34.0637 11.9801 34.2128 11.7939 34.3183 11.5483C34.4255 11.3027 34.479 11.0011 34.479 10.6434ZM40.5924 8.11178V13.175H39.6678L37.4649 9.98825H37.4279V13.175H36.3574V8.11178H37.2968L39.4823 11.2961H39.5268V8.11178H40.5924ZM45.7119 8.11178V13.175H44.7873L42.5845 9.98825H42.5474V13.175H41.4769V8.11178H42.4163L44.6019 11.2961H44.6464V8.11178H45.7119ZM46.5964 13.175V8.11178H50.0082V8.99439H47.6669V10.2009H49.8326V11.0835H47.6669V12.2924H50.0181V13.175H46.5964ZM55.3267 9.88442H54.2438C54.2241 9.74432 54.1837 9.61988 54.1227 9.5111C54.0617 9.40067 53.9834 9.30672 53.8878 9.22926C53.7922 9.15179 53.6818 9.09246 53.5565 9.05125C53.4329 9.01005 53.2986 8.98944 53.1536 8.98944C52.8915 8.98944 52.6632 9.05455 52.4687 9.18475C52.2742 9.31331 52.1234 9.50121 52.0163 9.74844C51.9092 9.99402 51.8556 10.2923 51.8556 10.6434C51.8556 11.0044 51.9092 11.3076 52.0163 11.5532C52.1251 11.7988 52.2767 11.9842 52.4712 12.1095C52.6657 12.2348 52.8907 12.2974 53.1461 12.2974C53.2895 12.2974 53.4222 12.2784 53.5442 12.2405C53.6678 12.2026 53.7774 12.1474 53.873 12.0749C53.9686 12.0007 54.0477 11.9109 54.1103 11.8054C54.1746 11.6999 54.2191 11.5796 54.2438 11.4444L55.3267 11.4494C55.2987 11.6818 55.2286 11.9059 55.1166 12.1218C55.0061 12.3361 54.857 12.5281 54.6691 12.6979C54.4828 12.866 54.2603 12.9995 54.0016 13.0984C53.7444 13.1957 53.4535 13.2443 53.1288 13.2443C52.6772 13.2443 52.2734 13.1421 51.9174 12.9377C51.563 12.7333 51.2828 12.4375 51.0768 12.0502C50.8724 11.6628 50.7703 11.1939 50.7703 10.6434C50.7703 10.0913 50.8741 9.62153 51.0818 9.2342C51.2894 8.84687 51.5713 8.55185 51.9273 8.34912C52.2833 8.14474 52.6838 8.04255 53.1288 8.04255C53.4222 8.04255 53.6942 8.08376 53.9447 8.16617C54.1969 8.24858 54.4202 8.3689 54.6147 8.52712C54.8092 8.6837 54.9674 8.87572 55.0894 9.10317C55.213 9.33062 55.2921 9.59104 55.3267 9.88442ZM55.9015 8.99439V8.11178H60.0599V8.99439H58.5098V13.175H57.4516V8.99439H55.9015ZM65.1665 10.6434C65.1665 11.1956 65.0618 11.6653 64.8525 12.0526C64.6448 12.44 64.3613 12.7358 64.002 12.9402C63.6443 13.1429 63.2422 13.2443 62.7955 13.2443C62.3456 13.2443 61.9418 13.1421 61.5841 12.9377C61.2264 12.7333 60.9438 12.4375 60.7361 12.0502C60.5284 11.6628 60.4246 11.1939 60.4246 10.6434C60.4246 10.0913 60.5284 9.62153 60.7361 9.2342C60.9438 8.84687 61.2264 8.55185 61.5841 8.34912C61.9418 8.14474 62.3456 8.04255 62.7955 8.04255C63.2422 8.04255 63.6443 8.14474 64.002 8.34912C64.3613 8.55185 64.6448 8.84687 64.8525 9.2342C65.0618 9.62153 65.1665 10.0913 65.1665 10.6434ZM64.0811 10.6434C64.0811 10.2858 64.0276 9.98413 63.9204 9.73855C63.8149 9.49297 63.6658 9.30672 63.4729 9.17981C63.2801 9.0529 63.0543 8.98944 62.7955 8.98944C62.5368 8.98944 62.311 9.0529 62.1181 9.17981C61.9253 9.30672 61.7753 9.49297 61.6682 9.73855C61.5627 9.98413 61.5099 10.2858 61.5099 10.6434C61.5099 11.0011 61.5627 11.3027 61.6682 11.5483C61.7753 11.7939 61.9253 11.9801 62.1181 12.107C62.311 12.2339 62.5368 12.2974 62.7955 12.2974C63.0543 12.2974 63.2801 12.2339 63.4729 12.107C63.6658 11.9801 63.8149 11.7939 63.9204 11.5483C64.0276 11.3027 64.0811 11.0011 64.0811 10.6434ZM65.9595 13.175V8.11178H67.9571C68.3395 8.11178 68.6658 8.18018 68.9361 8.31698C69.2081 8.45213 69.4149 8.64414 69.5567 8.89302C69.7 9.14025 69.7717 9.43116 69.7717 9.76575C69.7717 10.102 69.6992 10.3912 69.5542 10.6335C69.4091 10.8742 69.199 11.0588 68.9237 11.1873C68.6501 11.3159 68.3189 11.3802 67.9299 11.3802H66.5924V10.5198H67.7568C67.9612 10.5198 68.131 10.4918 68.2661 10.4357C68.4013 10.3797 68.5018 10.2956 68.5677 10.1836C68.6353 10.0715 68.6691 9.93221 68.6691 9.76575C68.6691 9.59763 68.6353 9.45588 68.5677 9.34051C68.5018 9.22514 68.4004 9.13778 68.2636 9.07845C68.1285 9.01746 67.9579 8.98697 67.7519 8.98697H67.03V13.175H65.9595ZM68.6938 10.8709L69.9522 13.175H68.7705L67.5393 10.8709H68.6938ZM73.275 9.56796C73.2552 9.36853 73.1703 9.2136 73.0203 9.10317C72.8704 8.99274 72.6668 8.93752 72.4097 8.93752C72.235 8.93752 72.0875 8.96225 71.9671 9.01169C71.8468 9.05949 71.7545 9.12624 71.6902 9.21195C71.6276 9.29766 71.5963 9.3949 71.5963 9.50368C71.593 9.59433 71.612 9.67345 71.6532 9.74102C71.696 9.8086 71.7545 9.86711 71.8287 9.91656C71.9029 9.96435 71.9886 10.0064 72.0858 10.0426C72.1831 10.0773 72.2869 10.1069 72.3973 10.1316L72.8522 10.2404C73.0731 10.2899 73.2758 10.3558 73.4604 10.4382C73.645 10.5206 73.8049 10.622 73.94 10.7423C74.0752 10.8626 74.1799 11.0044 74.254 11.1675C74.3298 11.3307 74.3686 11.5178 74.3702 11.7288C74.3686 12.0386 74.2895 12.3073 74.1329 12.5347C73.9779 12.7605 73.7538 12.9361 73.4604 13.0613C73.1687 13.1849 72.8168 13.2467 72.4047 13.2467C71.996 13.2467 71.64 13.1841 71.3367 13.0589C71.0351 12.9336 70.7994 12.7482 70.6296 12.5026C70.4615 12.2554 70.3733 11.9496 70.3651 11.5854H71.401C71.4125 11.7551 71.4611 11.8969 71.5469 12.0106C71.6342 12.1227 71.7504 12.2076 71.8954 12.2652C72.0421 12.3213 72.2078 12.3493 72.3924 12.3493C72.5737 12.3493 72.7311 12.3229 72.8646 12.2702C72.9997 12.2174 73.1044 12.1441 73.1786 12.0502C73.2527 11.9562 73.2898 11.8482 73.2898 11.7263C73.2898 11.6126 73.256 11.517 73.1885 11.4395C73.1225 11.362 73.0253 11.2961 72.8967 11.2417C72.7698 11.1873 72.6141 11.1379 72.4295 11.0934L71.8781 10.9549C71.4513 10.8511 71.1142 10.6887 70.867 10.4679C70.6197 10.247 70.4969 9.94952 70.4986 9.57538C70.4969 9.26881 70.5785 9.00098 70.7434 8.77188C70.9098 8.54278 71.1381 8.36395 71.4282 8.23539C71.7183 8.10683 72.0479 8.04255 72.4171 8.04255C72.7929 8.04255 73.1209 8.10683 73.4011 8.23539C73.6829 8.36395 73.9021 8.54278 74.0587 8.77188C74.2153 9.00098 74.2961 9.26634 74.301 9.56796H73.275Z" fill="white"/>
<path d="M18.0575 8.53107L18.4455 9.31805C18.4627 9.35298 18.4882 9.38317 18.5197 9.40601C18.5513 9.42884 18.5879 9.4436 18.6265 9.44904L19.4945 9.57507C19.5387 9.58157 19.5803 9.60025 19.6144 9.62909C19.6486 9.65793 19.674 9.69576 19.6879 9.73828C19.7017 9.7808 19.7034 9.82639 19.6927 9.86981C19.682 9.91324 19.6594 9.9528 19.6275 9.98407L18.9995 10.5961C18.9714 10.623 18.9504 10.6564 18.9384 10.6934C18.9263 10.7304 18.9236 10.7698 18.9305 10.808L19.0785 11.6721C19.086 11.7162 19.0811 11.7615 19.0642 11.803C19.0474 11.8444 19.0192 11.8803 18.983 11.9066C18.9468 11.9329 18.904 11.9486 18.8594 11.9518C18.8148 11.9551 18.7701 11.9458 18.7305 11.925L17.9545 11.5161C17.92 11.4983 17.8817 11.4891 17.843 11.4891C17.8042 11.4891 17.766 11.4983 17.7315 11.5161L16.9545 11.925C16.9149 11.946 16.8703 11.9554 16.8256 11.9521C16.781 11.9489 16.7382 11.9332 16.702 11.9069C16.6658 11.8805 16.6378 11.8445 16.6211 11.803C16.6044 11.7615 16.5997 11.7161 16.6075 11.6721L16.7555 10.808C16.7619 10.7698 16.759 10.7305 16.747 10.6936C16.7349 10.6567 16.7142 10.6232 16.6865 10.5961L16.0585 9.98407C16.0265 9.9528 16.0039 9.91324 15.9933 9.86981C15.9826 9.82639 15.9843 9.7808 15.9981 9.73828C16.0119 9.69576 16.0373 9.65793 16.0715 9.62909C16.1057 9.60025 16.1472 9.58157 16.1915 9.57507L17.0595 9.44904C17.0979 9.44353 17.1343 9.42872 17.1657 9.40588C17.1971 9.38305 17.2224 9.35291 17.2395 9.31805L17.6275 8.53107C17.6473 8.49102 17.678 8.45734 17.716 8.43378C17.754 8.41022 17.7978 8.39771 17.8425 8.39771C17.8872 8.39771 17.931 8.41022 17.969 8.43378C18.007 8.45734 18.0376 8.49102 18.0575 8.53107Z" fill="white"/>
<path d="M87.1942 8.53107L87.5822 9.31805C87.5994 9.35298 87.6249 9.38317 87.6564 9.40601C87.688 9.42884 87.7246 9.4436 87.7632 9.44904L88.6312 9.57507C88.6754 9.58157 88.717 9.60025 88.7512 9.62909C88.7853 9.65793 88.8108 9.69576 88.8246 9.73828C88.8384 9.7808 88.8401 9.82639 88.8294 9.86981C88.8187 9.91324 88.7962 9.9528 88.7642 9.98407L88.1362 10.5961C88.1081 10.623 88.0871 10.6564 88.0751 10.6934C88.063 10.7304 88.0603 10.7698 88.0672 10.808L88.2152 11.6721C88.2228 11.7162 88.2178 11.7615 88.2009 11.803C88.1841 11.8444 88.156 11.8803 88.1198 11.9066C88.0836 11.9329 88.0407 11.9486 87.9961 11.9518C87.9515 11.9551 87.9068 11.9458 87.8672 11.925L87.0912 11.5161C87.0567 11.4983 87.0185 11.4891 86.9797 11.4891C86.9409 11.4891 86.9027 11.4983 86.8682 11.5161L86.0912 11.925C86.0516 11.946 86.007 11.9554 85.9624 11.9521C85.9177 11.9489 85.8749 11.9332 85.8387 11.9069C85.8026 11.8805 85.7745 11.8445 85.7578 11.803C85.7411 11.7615 85.7364 11.7161 85.7442 11.6721L85.8922 10.808C85.8986 10.7698 85.8957 10.7305 85.8837 10.6936C85.8717 10.6567 85.8509 10.6232 85.8232 10.5961L85.1952 9.98407C85.1632 9.9528 85.1407 9.91324 85.13 9.86981C85.1193 9.82639 85.121 9.7808 85.1348 9.73828C85.1486 9.69576 85.1741 9.65793 85.2083 9.62909C85.2424 9.60025 85.284 9.58157 85.3282 9.57507L86.1962 9.44904C86.2346 9.44353 86.2711 9.42872 86.3025 9.40588C86.3338 9.38305 86.3591 9.35291 86.3762 9.31805L86.7642 8.53107C86.7841 8.49102 86.8147 8.45734 86.8527 8.43378C86.8907 8.41022 86.9345 8.39771 86.9792 8.39771C87.0239 8.39771 87.0677 8.41022 87.1057 8.43378C87.1437 8.45734 87.1743 8.49102 87.1942 8.53107Z" fill="white"/>
</svg>
