<svg width="109" height="20" viewBox="0 0 109 20" fill="none" xmlns="http://www.w3.org/2000/svg">
<path d="M108.251 19.121H0.419922V0.781982H108.251L103.73 9.95203L108.251 19.121Z" fill="#F4B763"/>
<path d="M29.1939 9.64737C29.1593 9.52705 29.1107 9.42074 29.0481 9.32844C28.9854 9.23449 28.9088 9.15538 28.8181 9.0911C28.7291 9.02517 28.627 8.9749 28.5116 8.94029C28.3979 8.90568 28.2718 8.88837 28.1333 8.88837C27.8746 8.88837 27.6471 8.95265 27.451 9.08121C27.2565 9.20977 27.1048 9.39684 26.9961 9.64242C26.8873 9.88635 26.8329 10.1847 26.8329 10.5374C26.8329 10.8901 26.8865 11.1901 26.9936 11.4373C27.1007 11.6845 27.2524 11.8733 27.4485 12.0035C27.6446 12.132 27.8762 12.1963 28.1432 12.1963C28.3855 12.1963 28.5923 12.1535 28.7638 12.0677C28.9368 11.9804 29.0687 11.8576 29.1593 11.6994C29.2516 11.5411 29.2978 11.3541 29.2978 11.1382L29.5153 11.1703H28.21V10.3643H30.3287V11.0022C30.3287 11.4472 30.2348 11.8296 30.0469 12.1493C29.859 12.4674 29.6002 12.713 29.2706 12.8861C28.9409 13.0575 28.5635 13.1432 28.1383 13.1432C27.6636 13.1432 27.2466 13.0385 26.8873 12.8292C26.528 12.6182 26.2478 12.3191 26.0467 11.9318C25.8473 11.5428 25.7476 11.0813 25.7476 10.5473C25.7476 10.1369 25.8069 9.77098 25.9256 9.44958C26.0459 9.12653 26.214 8.85293 26.4299 8.62878C26.6458 8.40462 26.8972 8.23403 27.184 8.11701C27.4707 7.99999 27.7814 7.94148 28.116 7.94148C28.4028 7.94148 28.6698 7.98351 28.917 8.06756C29.1643 8.14997 29.3835 8.267 29.5747 8.41863C29.7675 8.57027 29.9249 8.75074 30.0469 8.96007C30.1688 9.16774 30.2471 9.39684 30.2818 9.64737H29.1939ZM35.7857 10.5423C35.7857 11.0945 35.6811 11.5642 35.4717 11.9515C35.2641 12.3389 34.9806 12.6347 34.6213 12.8391C34.2636 13.0418 33.8614 13.1432 33.4148 13.1432C32.9648 13.1432 32.561 13.041 32.2033 12.8366C31.8457 12.6323 31.563 12.3364 31.3553 11.9491C31.1477 11.5618 31.0438 11.0928 31.0438 10.5423C31.0438 9.99019 31.1477 9.52045 31.3553 9.13313C31.563 8.7458 31.8457 8.45077 32.2033 8.24804C32.561 8.04367 32.9648 7.94148 33.4148 7.94148C33.8614 7.94148 34.2636 8.04367 34.6213 8.24804C34.9806 8.45077 35.2641 8.7458 35.4717 9.13313C35.6811 9.52045 35.7857 9.99019 35.7857 10.5423ZM34.7004 10.5423C34.7004 10.1847 34.6468 9.88306 34.5397 9.63748C34.4342 9.39189 34.285 9.20565 34.0922 9.07874C33.8993 8.95182 33.6735 8.88837 33.4148 8.88837C33.156 8.88837 32.9302 8.95182 32.7374 9.07874C32.5445 9.20565 32.3945 9.39189 32.2874 9.63748C32.1819 9.88306 32.1292 10.1847 32.1292 10.5423C32.1292 10.9 32.1819 11.2016 32.2874 11.4472C32.3945 11.6928 32.5445 11.879 32.7374 12.0059C32.9302 12.1329 33.156 12.1963 33.4148 12.1963C33.6735 12.1963 33.8993 12.1329 34.0922 12.0059C34.285 11.879 34.4342 11.6928 34.5397 11.4472C34.6468 11.2016 34.7004 10.9 34.7004 10.5423ZM37.1659 13.074H36.0187L37.7666 8.0107H39.1462L40.8916 13.074H39.7445L38.4762 9.16774H38.4366L37.1659 13.074ZM37.0942 11.0838H39.8038V11.9194H37.0942V11.0838ZM41.5011 13.074V8.0107H42.5716V12.1914H44.7422V13.074H41.5011ZM49.8092 9.46689C49.7894 9.26745 49.7046 9.11252 49.5546 9.00209C49.4046 8.89167 49.201 8.83645 48.9439 8.83645C48.7692 8.83645 48.6217 8.86117 48.5014 8.91062C48.3811 8.95842 48.2888 9.02517 48.2245 9.11088C48.1618 9.19658 48.1305 9.29383 48.1305 9.40261C48.1272 9.49326 48.1462 9.57237 48.1874 9.63995C48.2302 9.70752 48.2888 9.76604 48.3629 9.81548C48.4371 9.86328 48.5228 9.90531 48.62 9.94157C48.7173 9.97618 48.8211 10.0058 48.9316 10.0306L49.3865 10.1394C49.6073 10.1888 49.81 10.2547 49.9946 10.3371C50.1792 10.4195 50.3391 10.5209 50.4743 10.6412C50.6094 10.7615 50.7141 10.9033 50.7883 11.0665C50.8641 11.2296 50.9028 11.4167 50.9045 11.6277C50.9028 11.9375 50.8237 12.2062 50.6671 12.4336C50.5122 12.6595 50.288 12.835 49.9946 12.9602C49.7029 13.0839 49.351 13.1457 48.939 13.1457C48.5302 13.1457 48.1742 13.083 47.8709 12.9578C47.5693 12.8325 47.3336 12.6471 47.1639 12.4015C46.9957 12.1543 46.9076 11.8485 46.8993 11.4843H47.9352C47.9468 11.654 47.9954 11.7958 48.0811 11.9095C48.1684 12.0216 48.2846 12.1065 48.4297 12.1642C48.5764 12.2202 48.742 12.2482 48.9266 12.2482C49.1079 12.2482 49.2653 12.2219 49.3988 12.1691C49.534 12.1164 49.6386 12.043 49.7128 11.9491C49.787 11.8551 49.8241 11.7472 49.8241 11.6252C49.8241 11.5115 49.7903 11.4159 49.7227 11.3384C49.6568 11.261 49.5595 11.195 49.431 11.1406C49.304 11.0862 49.1483 11.0368 48.9637 10.9923L48.4124 10.8538C47.9855 10.75 47.6484 10.5877 47.4012 10.3668C47.154 10.1459 47.0312 9.84845 47.0328 9.4743C47.0312 9.16774 47.1128 8.89991 47.2776 8.67081C47.4441 8.44171 47.6723 8.26288 47.9624 8.13432C48.2525 8.00576 48.5821 7.94148 48.9513 7.94148C49.3271 7.94148 49.6551 8.00576 49.9353 8.13432C50.2172 8.26288 50.4364 8.44171 50.5929 8.67081C50.7495 8.89991 50.8303 9.16527 50.8352 9.46689H49.8092ZM51.6245 13.074V8.0107H55.0363V8.89331H52.695V10.0998H54.8608V10.9824H52.695V12.1914H55.0462V13.074H51.6245ZM55.6945 8.89331V8.0107H59.8529V8.89331H58.3028V13.074H57.2447V8.89331H55.6945ZM60.3449 8.89331V8.0107H64.5033V8.89331H62.9532V13.074H61.8951V8.89331H60.3449ZM65.1882 13.074V8.0107H68.5999V8.89331H66.2587V10.0998H68.4244V10.9824H66.2587V12.1914H68.6098V13.074H65.1882ZM69.451 13.074V8.0107H71.4487C71.831 8.0107 72.1574 8.0791 72.4277 8.2159C72.6996 8.35106 72.9065 8.54307 73.0482 8.79195C73.1916 9.03918 73.2633 9.33009 73.2633 9.66467C73.2633 10.0009 73.1908 10.2902 73.0458 10.5324C72.9007 10.7731 72.6906 10.9577 72.4153 11.0862C72.1417 11.2148 71.8104 11.2791 71.4215 11.2791H70.0839V10.4187H71.2484C71.4528 10.4187 71.6225 10.3907 71.7577 10.3347C71.8928 10.2786 71.9934 10.1946 72.0593 10.0825C72.1269 9.97041 72.1607 9.83114 72.1607 9.66467C72.1607 9.49655 72.1269 9.35481 72.0593 9.23944C71.9934 9.12406 71.892 9.03671 71.7552 8.97737C71.6201 8.91639 71.4495 8.8859 71.2435 8.8859H70.5215V13.074H69.451ZM72.1854 10.7698L73.4438 13.074H72.262L71.0308 10.7698H72.1854Z" fill="white"/>
<path d="M19.3807 8.69202L19.7697 9.47803C19.7868 9.51288 19.8121 9.54296 19.8435 9.5658C19.8748 9.58863 19.9113 9.6035 19.9497 9.60901L20.8177 9.73499C20.862 9.74148 20.9035 9.76022 20.9377 9.78906C20.9718 9.8179 20.9973 9.85567 21.0111 9.89819C21.0249 9.94072 21.0266 9.98636 21.0159 10.0298C21.0053 10.0732 20.9827 10.1128 20.9507 10.144L20.3227 10.756C20.2949 10.783 20.274 10.8166 20.262 10.8535C20.2499 10.8905 20.2471 10.9297 20.2537 10.968L20.4017 11.832C20.4093 11.8761 20.4043 11.9214 20.3875 11.9629C20.3706 12.0043 20.3425 12.0402 20.3063 12.0665C20.2701 12.0928 20.2273 12.1086 20.1826 12.1118C20.138 12.1151 20.0934 12.1057 20.0537 12.085L19.2777 11.677C19.2434 11.6588 19.2051 11.6493 19.1662 11.6493C19.1273 11.6493 19.0891 11.6588 19.0547 11.677L18.2777 12.085C18.2382 12.1059 18.1935 12.1153 18.1489 12.1121C18.1042 12.1088 18.0614 12.0931 18.0252 12.0668C17.9891 12.0404 17.9611 12.0044 17.9443 11.9629C17.9276 11.9214 17.9229 11.8761 17.9307 11.832L18.0787 10.968C18.0853 10.9297 18.0825 10.8905 18.0704 10.8535C18.0584 10.8166 18.0376 10.783 18.0097 10.756L17.3817 10.144C17.3498 10.1128 17.3272 10.0732 17.3165 10.0298C17.3058 9.98636 17.3075 9.94072 17.3213 9.89819C17.3352 9.85567 17.3606 9.8179 17.3948 9.78906C17.4289 9.76022 17.4705 9.74148 17.5147 9.73499L18.3827 9.60901C18.4211 9.6035 18.4576 9.58863 18.489 9.5658C18.5204 9.54296 18.5457 9.51288 18.5627 9.47803L18.9517 8.69202C18.9714 8.65193 19.002 8.6181 19.0399 8.59448C19.0778 8.57087 19.1215 8.55835 19.1662 8.55835C19.2109 8.55835 19.2547 8.57087 19.2926 8.59448C19.3305 8.6181 19.361 8.65193 19.3807 8.69202Z" fill="white"/>
<path d="M87.3036 8.69202L87.6926 9.47803C87.7096 9.51288 87.7349 9.54296 87.7663 9.5658C87.7977 9.58863 87.8342 9.6035 87.8726 9.60901L88.7406 9.73499C88.7848 9.74148 88.8263 9.76022 88.8605 9.78906C88.8947 9.8179 88.9201 9.85567 88.9339 9.89819C88.9478 9.94072 88.9495 9.98636 88.9388 10.0298C88.9281 10.0732 88.9055 10.1128 88.8736 10.144L88.2456 10.756C88.2177 10.783 88.1968 10.8166 88.1848 10.8535C88.1728 10.8905 88.17 10.9297 88.1766 10.968L88.3246 11.832C88.3324 11.8761 88.3276 11.9214 88.3109 11.9629C88.2942 12.0044 88.2662 12.0404 88.23 12.0668C88.1939 12.0931 88.151 12.1088 88.1064 12.1121C88.0618 12.1153 88.0171 12.1059 87.9776 12.085L87.2006 11.677C87.1662 11.6588 87.1279 11.6493 87.0891 11.6493C87.0502 11.6493 87.0119 11.6588 86.9776 11.677L86.2016 12.085C86.1619 12.1057 86.1173 12.1151 86.0726 12.1118C86.028 12.1086 85.9852 12.0928 85.949 12.0665C85.9128 12.0402 85.8847 12.0043 85.8678 11.9629C85.851 11.9214 85.846 11.8761 85.8536 11.832L86.0016 10.968C86.0082 10.9297 86.0053 10.8905 85.9933 10.8535C85.9813 10.8166 85.9604 10.783 85.9326 10.756L85.3046 10.144C85.2726 10.1128 85.25 10.0732 85.2394 10.0298C85.2287 9.98636 85.2304 9.94072 85.2442 9.89819C85.258 9.85567 85.2834 9.8179 85.3176 9.78906C85.3518 9.76022 85.3933 9.74148 85.4376 9.73499L86.3056 9.60901C86.344 9.60367 86.3806 9.58889 86.412 9.56604C86.4434 9.54319 86.4687 9.51299 86.4856 9.47803L86.8746 8.69202C86.8943 8.65193 86.9248 8.6181 86.9627 8.59448C87.0006 8.57087 87.0444 8.55835 87.0891 8.55835C87.1337 8.55835 87.1775 8.57087 87.2154 8.59448C87.2533 8.6181 87.2839 8.65193 87.3036 8.69202Z" fill="white"/>
</svg>
