<svg width="109" height="19" viewBox="0 0 109 19" fill="none" xmlns="http://www.w3.org/2000/svg">
<path d="M108.251 18.78H0.419922V0.439941H108.251L103.73 9.60999L108.251 18.78Z" fill="#649D66"/>
<path d="M27.8498 10.2003C27.8498 10.7524 27.7451 11.2222 27.5358 11.6095C27.3281 11.9968 27.0446 12.2927 26.6853 12.4971C26.3277 12.6998 25.9255 12.8012 25.4788 12.8012C25.0289 12.8012 24.6251 12.699 24.2674 12.4946C23.9098 12.2902 23.6271 11.9944 23.4194 11.607C23.2117 11.2197 23.1079 10.7508 23.1079 10.2003C23.1079 9.64815 23.2117 9.17841 23.4194 8.79109C23.6271 8.40376 23.9098 8.10873 24.2674 7.906C24.6251 7.70162 25.0289 7.59944 25.4788 7.59944C25.9255 7.59944 26.3277 7.70162 26.6853 7.906C27.0446 8.10873 27.3281 8.40376 27.5358 8.79109C27.7451 9.17841 27.8498 9.64815 27.8498 10.2003ZM26.7644 10.2003C26.7644 9.84264 26.7109 9.54102 26.6037 9.29543C26.4983 9.04985 26.3491 8.86361 26.1562 8.7367C25.9634 8.60978 25.7376 8.54633 25.4788 8.54633C25.2201 8.54633 24.9943 8.60978 24.8014 8.7367C24.6086 8.86361 24.4586 9.04985 24.3515 9.29543C24.246 9.54102 24.1932 9.84264 24.1932 10.2003C24.1932 10.558 24.246 10.8596 24.3515 11.1052C24.4586 11.3507 24.6086 11.537 24.8014 11.6639C24.9943 11.7908 25.2201 11.8543 25.4788 11.8543C25.7376 11.8543 25.9634 11.7908 26.1562 11.6639C26.3491 11.537 26.4983 11.3507 26.6037 11.1052C26.7109 10.8596 26.7644 10.558 26.7644 10.2003ZM28.6428 12.7319V7.66866H30.6404C31.0244 7.66866 31.3516 7.74201 31.6219 7.8887C31.8922 8.03374 32.0982 8.23564 32.24 8.49441C32.3834 8.75153 32.4551 9.0482 32.4551 9.38444C32.4551 9.72067 32.3825 10.0173 32.2375 10.2745C32.0925 10.5316 31.8823 10.7318 31.6071 10.8752C31.3335 11.0186 31.0022 11.0903 30.6132 11.0903H29.34V10.2324H30.4401C30.6462 10.2324 30.8159 10.197 30.9494 10.1261C31.0846 10.0536 31.1851 9.95389 31.251 9.82698C31.3186 9.69842 31.3524 9.55091 31.3524 9.38444C31.3524 9.21632 31.3186 9.06963 31.251 8.94437C31.1851 8.81746 31.0846 8.71939 30.9494 8.65016C30.8143 8.57929 30.6429 8.54386 30.4352 8.54386H29.7133V12.7319H28.6428ZM33.1504 12.7319V7.66866H35.148C35.532 7.66866 35.8592 7.74201 36.1295 7.8887C36.3998 8.03374 36.6058 8.23564 36.7476 8.49441C36.891 8.75153 36.9627 9.0482 36.9627 9.38444C36.9627 9.72067 36.8902 10.0173 36.7451 10.2745C36.6001 10.5316 36.3899 10.7318 36.1147 10.8752C35.8411 11.0186 35.5098 11.0903 35.1208 11.0903H33.8476V10.2324H34.9478C35.1538 10.2324 35.3235 10.197 35.457 10.1261C35.5922 10.0536 35.6927 9.95389 35.7587 9.82698C35.8262 9.69842 35.86 9.55091 35.86 9.38444C35.86 9.21632 35.8262 9.06963 35.7587 8.94437C35.6927 8.81746 35.5922 8.71939 35.457 8.65016C35.3219 8.57929 35.1505 8.54386 34.9428 8.54386H34.2209V12.7319H33.1504ZM42.3109 10.2003C42.3109 10.7524 42.2062 11.2222 41.9969 11.6095C41.7892 11.9968 41.5057 12.2927 41.1464 12.4971C40.7888 12.6998 40.3866 12.8012 39.9399 12.8012C39.49 12.8012 39.0862 12.699 38.7285 12.4946C38.3709 12.2902 38.0882 11.9944 37.8805 11.607C37.6728 11.2197 37.569 10.7508 37.569 10.2003C37.569 9.64815 37.6728 9.17841 37.8805 8.79109C38.0882 8.40376 38.3709 8.10873 38.7285 7.906C39.0862 7.70162 39.49 7.59944 39.9399 7.59944C40.3866 7.59944 40.7888 7.70162 41.1464 7.906C41.5057 8.10873 41.7892 8.40376 41.9969 8.79109C42.2062 9.17841 42.3109 9.64815 42.3109 10.2003ZM41.2255 10.2003C41.2255 9.84264 41.172 9.54102 41.0648 9.29543C40.9594 9.04985 40.8102 8.86361 40.6174 8.7367C40.4245 8.60978 40.1987 8.54633 39.9399 8.54633C39.6812 8.54633 39.4554 8.60978 39.2625 8.7367C39.0697 8.86361 38.9197 9.04985 38.8126 9.29543C38.7071 9.54102 38.6544 9.84264 38.6544 10.2003C38.6544 10.558 38.7071 10.8596 38.8126 11.1052C38.9197 11.3507 39.0697 11.537 39.2625 11.6639C39.4554 11.7908 39.6812 11.8543 39.9399 11.8543C40.1987 11.8543 40.4245 11.7908 40.6174 11.6639C40.8102 11.537 40.9594 11.3507 41.0648 11.1052C41.172 10.8596 41.2255 10.558 41.2255 10.2003ZM43.1039 12.7319V7.66866H45.1015C45.4839 7.66866 45.8102 7.73706 46.0805 7.87386C46.3525 8.00901 46.5593 8.20103 46.7011 8.44991C46.8445 8.69714 46.9162 8.98805 46.9162 9.32263C46.9162 9.65886 46.8436 9.94812 46.6986 10.1904C46.5536 10.431 46.3434 10.6156 46.0682 10.7442C45.7946 10.8728 45.4633 10.937 45.0743 10.937H43.7368V10.0767H44.9012C45.1056 10.0767 45.2754 10.0487 45.4105 9.99262C45.5457 9.93659 45.6462 9.85253 45.7122 9.74045C45.7797 9.62837 45.8135 9.4891 45.8135 9.32263C45.8135 9.15451 45.7797 9.01277 45.7122 8.89739C45.6462 8.78202 45.5449 8.69467 45.4081 8.63533C45.2729 8.57435 45.1023 8.54386 44.8963 8.54386H44.1744V12.7319H43.1039ZM45.8382 10.4277L47.0966 12.7319H45.9149L44.6837 10.4277H45.8382ZM47.4798 8.55127V7.66866H51.6383V8.55127H50.0881V12.7319H49.03V8.55127H47.4798ZM55.4505 7.66866H56.5211V10.9568C56.5211 11.326 56.4329 11.6491 56.2565 11.926C56.0818 12.2029 55.837 12.4188 55.5222 12.5737C55.2074 12.727 54.8407 12.8036 54.4221 12.8036C54.0018 12.8036 53.6342 12.727 53.3194 12.5737C53.0046 12.4188 52.7599 12.2029 52.5851 11.926C52.4104 11.6491 52.3231 11.326 52.3231 10.9568V7.66866H53.3936V10.8653C53.3936 11.0582 53.4356 11.2296 53.5197 11.3796C53.6054 11.5296 53.7257 11.6474 53.8806 11.7331C54.0356 11.8188 54.216 11.8617 54.4221 11.8617C54.6297 11.8617 54.8102 11.8188 54.9635 11.7331C55.1184 11.6474 55.2379 11.5296 55.322 11.3796C55.4077 11.2296 55.4505 11.0582 55.4505 10.8653V7.66866ZM61.6369 7.66866V12.7319H60.7122L58.5094 9.54514H58.4723V12.7319H57.4018V7.66866H58.3413L60.5268 10.853H60.5713V7.66866H61.6369ZM63.5918 7.66866V12.7319H62.5213V7.66866H63.5918ZM67.2193 9.12485C67.1995 8.92541 67.1147 8.77048 66.9647 8.66005C66.8147 8.54962 66.6111 8.49441 66.354 8.49441C66.1793 8.49441 66.0318 8.51913 65.9115 8.56858C65.7912 8.61638 65.6989 8.68313 65.6346 8.76883C65.5719 8.85454 65.5406 8.95179 65.5406 9.06057C65.5373 9.15122 65.5563 9.23033 65.5975 9.29791C65.6403 9.36548 65.6989 9.42399 65.773 9.47344C65.8472 9.52124 65.9329 9.56327 66.0301 9.59953C66.1274 9.63414 66.2312 9.66381 66.3416 9.68853L66.7966 9.79731C67.0174 9.84676 67.2201 9.91269 67.4047 9.9951C67.5893 10.0775 67.7492 10.1789 67.8844 10.2992C68.0195 10.4195 68.1242 10.5613 68.1983 10.7244C68.2742 10.8876 68.3129 11.0747 68.3145 11.2856C68.3129 11.5955 68.2338 11.8642 68.0772 12.0916C67.9223 12.3174 67.6981 12.4929 67.4047 12.6182C67.113 12.7418 66.7611 12.8036 66.3491 12.8036C65.9403 12.8036 65.5843 12.741 65.281 12.6157C64.9794 12.4905 64.7437 12.305 64.574 12.0595C64.4058 11.8122 64.3177 11.5065 64.3094 11.1422H65.3453C65.3568 11.312 65.4055 11.4538 65.4912 11.5675C65.5785 11.6796 65.6947 11.7644 65.8398 11.8221C65.9865 11.8782 66.1521 11.9062 66.3367 11.9062C66.518 11.9062 66.6754 11.8798 66.8089 11.8271C66.9441 11.7743 67.0487 11.701 67.1229 11.607C67.1971 11.5131 67.2342 11.4051 67.2342 11.2832C67.2342 11.1694 67.2004 11.0738 67.1328 10.9964C67.0669 10.9189 66.9696 10.853 66.8411 10.7986C66.7141 10.7442 66.5584 10.6948 66.3738 10.6503L65.8225 10.5118C65.3956 10.408 65.0585 10.2456 64.8113 10.0248C64.5641 9.8039 64.4413 9.5064 64.4429 9.13226C64.4413 8.8257 64.5229 8.55787 64.6877 8.32877C64.8541 8.09967 65.0824 7.92084 65.3725 7.79228C65.6626 7.66372 65.9922 7.59944 66.3614 7.59944C66.7372 7.59944 67.0652 7.66372 67.3454 7.79228C67.6272 7.92084 67.8465 8.09967 68.003 8.32877C68.1596 8.55787 68.2404 8.82323 68.2453 9.12485H67.2193ZM68.8418 8.55127V7.66866H73.0002V8.55127H71.45V12.7319H70.3919V8.55127H68.8418Z" fill="white"/>
<path d="M14.7414 8.30994L15.1303 9.09583C15.1472 9.13078 15.1725 9.16111 15.2039 9.18396C15.2353 9.20681 15.2719 9.22159 15.3104 9.22693L16.1783 9.35388C16.2226 9.36016 16.2642 9.37874 16.2984 9.40747C16.3326 9.4362 16.3581 9.47399 16.372 9.51648C16.3858 9.55897 16.3875 9.60444 16.3768 9.64783C16.366 9.69121 16.3434 9.73069 16.3113 9.76184L15.6833 10.3739C15.6553 10.4009 15.6344 10.4343 15.6224 10.4713C15.6103 10.5083 15.6076 10.5477 15.6143 10.5859L15.7623 11.4509C15.7697 11.495 15.7645 11.5401 15.7476 11.5814C15.7306 11.6227 15.7025 11.6584 15.6663 11.6846C15.6302 11.7107 15.5874 11.7264 15.5429 11.7296C15.4984 11.7328 15.4539 11.7236 15.4143 11.7029L14.6383 11.2949C14.604 11.2767 14.5657 11.2671 14.5268 11.2671C14.488 11.2671 14.4497 11.2767 14.4153 11.2949L13.6383 11.7029C13.5988 11.7237 13.5543 11.733 13.5098 11.7299C13.4653 11.7267 13.4225 11.711 13.3864 11.6848C13.3503 11.6586 13.3222 11.6228 13.3054 11.5814C13.2886 11.5401 13.2838 11.4949 13.2913 11.4509L13.4393 10.5859C13.4459 10.5477 13.443 10.5084 13.431 10.4714C13.4189 10.4345 13.3981 10.401 13.3703 10.3739L12.7423 9.76184C12.7103 9.73069 12.6876 9.69121 12.6769 9.64783C12.6662 9.60444 12.6678 9.55897 12.6817 9.51648C12.6955 9.47399 12.721 9.4362 12.7553 9.40747C12.7895 9.37874 12.8311 9.36016 12.8753 9.35388L13.7433 9.22693C13.7817 9.22142 13.8182 9.20655 13.8496 9.18372C13.881 9.16088 13.9063 9.13068 13.9233 9.09583L14.3123 8.30994C14.332 8.26985 14.3626 8.23602 14.4005 8.2124C14.4384 8.18879 14.4822 8.17627 14.5268 8.17627C14.5715 8.17627 14.6153 8.18879 14.6532 8.2124C14.6911 8.23602 14.7217 8.26985 14.7414 8.30994Z" fill="white"/>
<path d="M89.9415 8.31018L90.3295 9.09607C90.3466 9.13092 90.3719 9.16113 90.4033 9.18396C90.4347 9.20679 90.4711 9.22166 90.5095 9.22717L91.3786 9.35413C91.4227 9.36056 91.4642 9.37928 91.4983 9.40808C91.5324 9.43688 91.5578 9.47463 91.5715 9.51709C91.5852 9.55955 91.5868 9.605 91.576 9.64832C91.5652 9.69163 91.5426 9.731 91.5105 9.76208L90.8826 10.3741C90.8549 10.4014 90.8342 10.4348 90.8222 10.4717C90.8102 10.5086 90.8072 10.5479 90.8136 10.5862L90.9625 11.4512C90.9699 11.4952 90.9648 11.5404 90.9478 11.5817C90.9308 11.623 90.9027 11.6586 90.8666 11.6848C90.8304 11.711 90.7877 11.7266 90.7432 11.7299C90.6986 11.7331 90.6541 11.7238 90.6146 11.7031L89.8375 11.2952C89.8032 11.277 89.7649 11.2673 89.726 11.2673C89.6872 11.2673 89.6489 11.277 89.6146 11.2952L88.8386 11.7031C88.799 11.7238 88.7545 11.7331 88.7099 11.7299C88.6654 11.7266 88.6227 11.711 88.5865 11.6848C88.5504 11.6586 88.5223 11.623 88.5053 11.5817C88.4883 11.5404 88.4832 11.4952 88.4906 11.4512L88.6395 10.5862C88.6459 10.5479 88.6429 10.5086 88.6309 10.4717C88.6189 10.4348 88.5982 10.4014 88.5705 10.3741L87.9415 9.76208C87.9095 9.73093 87.8868 9.69146 87.8761 9.64807C87.8654 9.60469 87.8671 9.55921 87.8809 9.51672C87.8948 9.47423 87.9202 9.43645 87.9545 9.40771C87.9887 9.37898 88.0303 9.36041 88.0745 9.35413L88.9426 9.22717C88.9811 9.22165 89.0177 9.20678 89.0492 9.18396C89.0807 9.16114 89.1063 9.13095 89.1236 9.09607L89.5116 8.31018C89.5314 8.27014 89.5621 8.23633 89.6001 8.21277C89.638 8.18921 89.6819 8.17676 89.7266 8.17676C89.7713 8.17676 89.8151 8.18921 89.853 8.21277C89.891 8.23633 89.9217 8.27014 89.9415 8.31018Z" fill="white"/>
</svg>
