<svg width="109" height="20" viewBox="0 0 109 20" fill="none" xmlns="http://www.w3.org/2000/svg">
<path d="M108.251 19.2081H0.419922V0.869141H108.251L103.73 10.0391L108.251 19.2081Z" fill="#53ABB7"/>
<path d="M23.858 13.1621V8.09884H25.8557C26.2397 8.09884 26.5669 8.17218 26.8372 8.31887C27.1075 8.46391 27.3135 8.66582 27.4552 8.92459C27.5986 9.1817 27.6703 9.47838 27.6703 9.81461C27.6703 10.1508 27.5978 10.4475 27.4528 10.7046C27.3077 10.9618 27.0976 11.162 26.8223 11.3054C26.5487 11.4488 26.2174 11.5205 25.8285 11.5205H24.5552V10.6626H25.6554C25.8614 10.6626 26.0312 10.6272 26.1647 10.5563C26.2998 10.4838 26.4004 10.3841 26.4663 10.2572C26.5339 10.1286 26.5677 9.98108 26.5677 9.81461C26.5677 9.6465 26.5339 9.49981 26.4663 9.37454C26.4004 9.24763 26.2998 9.14956 26.1647 9.08034C26.0295 9.00947 25.8581 8.97403 25.6505 8.97403H24.9285V13.1621H23.858ZM28.3657 13.1621V8.09884H30.3633C30.7457 8.09884 31.072 8.16724 31.3423 8.30404C31.6143 8.43919 31.8211 8.63121 31.9629 8.88008C32.1063 9.12731 32.178 9.41822 32.178 9.75281C32.178 10.089 32.1054 10.3783 31.9604 10.6206C31.8153 10.8612 31.6052 11.0458 31.33 11.1744C31.0563 11.3029 30.7251 11.3672 30.3361 11.3672H28.9986V10.5069H30.163C30.3674 10.5069 30.5372 10.4788 30.6723 10.4228C30.8075 10.3668 30.908 10.2827 30.9739 10.1706C31.0415 10.0585 31.0753 9.91927 31.0753 9.75281C31.0753 9.58469 31.0415 9.44294 30.9739 9.32757C30.908 9.2122 30.8066 9.12484 30.6698 9.06551C30.5347 9.00452 30.3641 8.97403 30.1581 8.97403H29.4362V13.1621H28.3657ZM31.1 10.8579L32.3584 13.1621H31.1767L29.9455 10.8579H31.1ZM37.5873 10.6305C37.5873 11.1826 37.4827 11.6524 37.2734 12.0397C37.0657 12.427 36.7822 12.7229 36.4229 12.9272C36.0652 13.13 35.6631 13.2313 35.2164 13.2313C34.7664 13.2313 34.3626 13.1291 34.005 12.9248C33.6473 12.7204 33.3647 12.4245 33.157 12.0372C32.9493 11.6499 32.8455 11.181 32.8455 10.6305C32.8455 10.0783 32.9493 9.60859 33.157 9.22126C33.3647 8.83393 33.6473 8.53891 34.005 8.33618C34.3626 8.1318 34.7664 8.02961 35.2164 8.02961C35.6631 8.02961 36.0652 8.1318 36.4229 8.33618C36.7822 8.53891 37.0657 8.83393 37.2734 9.22126C37.4827 9.60859 37.5873 10.0783 37.5873 10.6305ZM36.502 10.6305C36.502 10.2728 36.4484 9.97119 36.3413 9.72561C36.2358 9.48003 36.0867 9.29378 35.8938 9.16687C35.701 9.03996 35.4752 8.9765 35.2164 8.9765C34.9576 8.9765 34.7318 9.03996 34.539 9.16687C34.3462 9.29378 34.1962 9.48003 34.089 9.72561C33.9836 9.97119 33.9308 10.2728 33.9308 10.6305C33.9308 10.9881 33.9836 11.2898 34.089 11.5353C34.1962 11.7809 34.3462 11.9672 34.539 12.0941C34.7318 12.221 34.9576 12.2844 35.2164 12.2844C35.4752 12.2844 35.701 12.221 35.8938 12.0941C36.0867 11.9672 36.2358 11.7809 36.3413 11.5353C36.4484 11.2898 36.502 10.9881 36.502 10.6305ZM38.3803 13.1621V8.09884H41.7328V8.98145H39.4508V10.1879H41.5103V11.0705H39.4508V13.1621H38.3803ZM43.5233 8.09884V13.1621H42.4528V8.09884H43.5233ZM44.2113 8.98145V8.09884H48.3697V8.98145H46.8195V13.1621H45.7614V8.98145H44.2113ZM50.6658 13.1621V8.09884H54.0183V8.98145H51.7363V10.1879H53.7958V11.0705H51.7363V13.1621H50.6658ZM55.8088 8.09884V13.1621H54.7383V8.09884H55.8088ZM60.9246 8.09884V13.1621H60L57.7972 9.97531H57.7601V13.1621H56.6896V8.09884H57.6291L59.8146 11.2832H59.8591V8.09884H60.9246ZM63.604 13.1621H61.8091V8.09884H63.6188C64.1281 8.09884 64.5665 8.2002 64.9341 8.40293C65.3016 8.60401 65.5843 8.89327 65.7821 9.27071C65.9815 9.64815 66.0812 10.0998 66.0812 10.6255C66.0812 11.153 65.9815 11.6062 65.7821 11.9853C65.5843 12.3644 65.3 12.6553 64.9291 12.858C64.5599 13.0607 64.1182 13.1621 63.604 13.1621ZM62.8796 12.2449H63.5595C63.8759 12.2449 64.1421 12.1888 64.358 12.0768C64.5756 11.963 64.7388 11.7875 64.8476 11.5502C64.958 11.3112 65.0132 11.003 65.0132 10.6255C65.0132 10.2514 64.958 9.94565 64.8476 9.7083C64.7388 9.47096 64.5764 9.29625 64.3605 9.18418C64.1446 9.0721 63.8784 9.01606 63.562 9.01606H62.8796V12.2449ZM66.8742 13.1621V8.09884H70.286V8.98145H67.9447V10.1879H70.1105V11.0705H67.9447V12.2795H70.2959V13.1621H66.8742ZM71.1371 13.1621V8.09884H73.1347C73.5171 8.09884 73.8434 8.16724 74.1137 8.30404C74.3857 8.43919 74.5925 8.63121 74.7343 8.88008C74.8777 9.12731 74.9494 9.41822 74.9494 9.75281C74.9494 10.089 74.8769 10.3783 74.7318 10.6206C74.5868 10.8612 74.3766 11.0458 74.1014 11.1744C73.8278 11.3029 73.4965 11.3672 73.1075 11.3672H71.77V10.5069H72.9345C73.1388 10.5069 73.3086 10.4788 73.4437 10.4228C73.5789 10.3668 73.6794 10.2827 73.7454 10.1706C73.8129 10.0585 73.8467 9.91927 73.8467 9.75281C73.8467 9.58469 73.8129 9.44294 73.7454 9.32757C73.6794 9.2122 73.5781 9.12484 73.4413 9.06551C73.3061 9.00452 73.1355 8.97403 72.9295 8.97403H72.2076V13.1621H71.1371ZM73.8715 10.8579L75.1299 13.1621H73.9481L72.7169 10.8579H73.8715Z" fill="white"/>
<path d="M16.0946 8.7002L16.4826 9.48621C16.4998 9.52113 16.5253 9.55139 16.5568 9.57422C16.5884 9.59705 16.625 9.61175 16.6636 9.61719L17.5316 9.74329C17.5758 9.74978 17.6174 9.7684 17.6516 9.79724C17.6857 9.82608 17.7112 9.86397 17.725 9.90649C17.7388 9.94902 17.7405 9.99454 17.7298 10.038C17.7191 10.0814 17.6966 10.1209 17.6646 10.1522L17.0366 10.7643C17.0085 10.7912 16.9875 10.8246 16.9755 10.8616C16.9634 10.8986 16.9607 10.9379 16.9676 10.9762L17.1156 11.8402C17.1231 11.8843 17.1182 11.9297 17.1013 11.9712C17.0845 12.0126 17.0563 12.0485 17.0202 12.0748C16.984 12.1011 16.9411 12.1167 16.8965 12.12C16.8519 12.1233 16.8072 12.114 16.7676 12.0933L15.9916 11.6853C15.9573 11.667 15.919 11.6573 15.8801 11.6573C15.8412 11.6573 15.8029 11.667 15.7686 11.6853L14.9916 12.0933C14.952 12.1142 14.9074 12.1236 14.8627 12.1204C14.8181 12.1171 14.7753 12.1014 14.7391 12.0751C14.703 12.0487 14.6749 12.0127 14.6582 11.9712C14.6415 11.9297 14.6368 11.8843 14.6446 11.8402L14.7926 10.9762C14.7993 10.9379 14.7965 10.8986 14.7845 10.8617C14.7724 10.8247 14.7515 10.7913 14.7236 10.7643L14.0956 10.1522C14.0636 10.1209 14.041 10.0814 14.0304 10.038C14.0197 9.99454 14.0214 9.94902 14.0352 9.90649C14.049 9.86397 14.0745 9.82608 14.1087 9.79724C14.1428 9.7684 14.1843 9.74978 14.2286 9.74329L15.0966 9.61719C15.135 9.61176 15.1715 9.59706 15.2029 9.57422C15.2343 9.55138 15.2596 9.52111 15.2766 9.48621L15.6646 8.7002C15.6845 8.66015 15.7151 8.62647 15.7531 8.60291C15.7911 8.57935 15.8349 8.56689 15.8796 8.56689C15.9243 8.56689 15.9681 8.57935 16.0061 8.60291C16.0441 8.62647 16.0747 8.66015 16.0946 8.7002Z" fill="white"/>
<path d="M92.5087 8.7002L92.8967 9.48621C92.9137 9.52106 92.9391 9.55126 92.9704 9.5741C93.0018 9.59693 93.0383 9.61168 93.0767 9.61719L93.9447 9.74329C93.9891 9.74942 94.031 9.76795 94.0654 9.79675C94.0998 9.82555 94.1254 9.86345 94.1393 9.90613C94.1532 9.9488 94.1547 9.99443 94.1438 10.038C94.1329 10.0815 94.11 10.1211 94.0777 10.1522L93.4497 10.7643C93.4219 10.7915 93.4012 10.8249 93.3892 10.8618C93.3772 10.8987 93.3743 10.9379 93.3807 10.9762L93.5287 11.8402C93.5365 11.8843 93.5318 11.9297 93.515 11.9712C93.4983 12.0127 93.4703 12.0487 93.4341 12.0751C93.398 12.1014 93.3551 12.1171 93.3105 12.1204C93.2659 12.1236 93.2212 12.1142 93.1817 12.0933L92.4047 11.6853C92.3703 11.667 92.3321 11.6573 92.2932 11.6573C92.2543 11.6573 92.216 11.667 92.1817 11.6853L91.4057 12.0933C91.366 12.114 91.3214 12.1233 91.2768 12.12C91.2321 12.1167 91.1893 12.1011 91.1531 12.0748C91.1169 12.0485 91.0888 12.0126 91.072 11.9712C91.0551 11.9297 91.0501 11.8843 91.0577 11.8402L91.2057 10.9762C91.2125 10.9379 91.2098 10.8986 91.1978 10.8616C91.1857 10.8246 91.1648 10.7912 91.1367 10.7643L90.5087 10.1522C90.4767 10.1209 90.4541 10.0814 90.4434 10.038C90.4328 9.99454 90.4345 9.94902 90.4483 9.90649C90.4621 9.86397 90.4876 9.82608 90.5217 9.79724C90.5559 9.7684 90.5974 9.74978 90.6417 9.74329L91.5097 9.61719C91.5482 9.61175 91.5849 9.59705 91.6164 9.57422C91.648 9.55139 91.6735 9.52113 91.6907 9.48621L92.0787 8.7002C92.0985 8.66015 92.1292 8.62647 92.1672 8.60291C92.2052 8.57935 92.249 8.56689 92.2937 8.56689C92.3384 8.56689 92.3822 8.57935 92.4202 8.60291C92.4581 8.62647 92.4888 8.66015 92.5087 8.7002Z" fill="white"/>
</svg>
