<svg width="109" height="20" viewBox="0 0 109 20" fill="none" xmlns="http://www.w3.org/2000/svg">
<path d="M108.251 19.069H0.419922V0.72998H108.251L103.733 9.90002L108.251 19.069Z" fill="#E59D63"/>
<path d="M34.3343 9.41489C34.3145 9.21545 34.2296 9.06052 34.0796 8.95009C33.9296 8.83966 33.7261 8.78445 33.469 8.78445C33.2942 8.78445 33.1467 8.80917 33.0264 8.85862C32.9061 8.90642 32.8138 8.97317 32.7495 9.05887C32.6869 9.14458 32.6556 9.24182 32.6556 9.35061C32.6523 9.44126 32.6712 9.52037 32.7124 9.58795C32.7553 9.65552 32.8138 9.71403 32.888 9.76348C32.9621 9.81128 33.0478 9.85331 33.1451 9.88957C33.2423 9.92418 33.3462 9.95385 33.4566 9.97857L33.9115 10.0874C34.1324 10.1368 34.3351 10.2027 34.5197 10.2851C34.7043 10.3675 34.8642 10.4689 34.9993 10.5892C35.1345 10.7095 35.2391 10.8513 35.3133 11.0145C35.3891 11.1776 35.4278 11.3647 35.4295 11.5757C35.4278 11.8855 35.3487 12.1542 35.1921 12.3816C35.0372 12.6075 34.8131 12.783 34.5197 12.9082C34.2279 13.0319 33.8761 13.0937 33.464 13.0937C33.0553 13.0937 32.6992 13.031 32.396 12.9058C32.0944 12.7805 31.8587 12.5951 31.6889 12.3495C31.5208 12.1023 31.4326 11.7965 31.4244 11.4323H32.4603C32.4718 11.602 32.5204 11.7438 32.6061 11.8575C32.6935 11.9696 32.8097 12.0545 32.9547 12.1122C33.1014 12.1682 33.267 12.1962 33.4516 12.1962C33.6329 12.1962 33.7904 12.1699 33.9239 12.1171C34.059 12.0644 34.1637 11.991 34.2378 11.8971C34.312 11.8031 34.3491 11.6952 34.3491 11.5732C34.3491 11.4595 34.3153 11.3639 34.2477 11.2864C34.1818 11.209 34.0846 11.143 33.956 11.0886C33.8291 11.0342 33.6733 10.9848 33.4887 10.9403L32.9374 10.8018C32.5105 10.698 32.1735 10.5357 31.9262 10.3148C31.679 10.0939 31.5562 9.79644 31.5579 9.4223C31.5562 9.11574 31.6378 8.8479 31.8026 8.6188C31.9691 8.3897 32.1974 8.21087 32.4874 8.08231C32.7775 7.95376 33.1072 7.88948 33.4764 7.88948C33.8522 7.88948 34.1802 7.95376 34.4603 8.08231C34.7422 8.21087 34.9614 8.3897 35.118 8.6188C35.2746 8.8479 35.3553 9.11326 35.3603 9.41489H34.3343ZM35.9567 8.84131V7.9587H40.1151V8.84131H38.565V13.022H37.5068V8.84131H35.9567ZM41.054 13.022H39.9068L41.6547 7.9587H43.0343L44.7797 13.022H43.6326L42.3643 9.11574H42.3247L41.054 13.022ZM40.9823 11.0318H43.6919V11.8674H40.9823V11.0318ZM45.3892 13.022V7.9587H47.3868C47.7692 7.9587 48.0955 8.0271 48.3658 8.1639C48.6378 8.29905 48.8446 8.49107 48.9863 8.73995C49.1297 8.98718 49.2014 9.27808 49.2014 9.61267C49.2014 9.9489 49.1289 10.2382 48.9839 10.4804C48.8388 10.7211 48.6287 10.9057 48.3534 11.0342C48.0798 11.1628 47.7486 11.2271 47.3596 11.2271H46.0221V10.3667H47.1865C47.3909 10.3667 47.5607 10.3387 47.6958 10.2827C47.831 10.2266 47.9315 10.1426 47.9974 10.0305C48.065 9.91841 48.0988 9.77914 48.0988 9.61267C48.0988 9.44455 48.065 9.30281 47.9974 9.18743C47.9315 9.07206 47.8301 8.9847 47.6933 8.92537C47.5582 8.86439 47.3876 8.83389 47.1816 8.83389H46.4597V13.022H45.3892ZM48.1235 10.7178L49.3819 13.022H48.2002L46.969 10.7178H48.1235ZM49.7651 8.84131V7.9587H53.9235V8.84131H52.3734V13.022H51.3153V8.84131H49.7651ZM54.6084 13.022V7.9587H58.0201V8.84131H55.6789V10.0478H57.8446V10.9304H55.6789V12.1394H58.03V13.022H54.6084ZM58.8712 13.022V7.9587H60.8688C61.2512 7.9587 61.5776 8.0271 61.8479 8.1639C62.1198 8.29905 62.3267 8.49107 62.4684 8.73995C62.6118 8.98718 62.6835 9.27808 62.6835 9.61267C62.6835 9.9489 62.611 10.2382 62.466 10.4804C62.3209 10.7211 62.1108 10.9057 61.8355 11.0342C61.5619 11.1628 61.2306 11.2271 60.8417 11.2271H59.5041V10.3667H60.6686C60.873 10.3667 61.0427 10.3387 61.1779 10.2827C61.313 10.2266 61.4136 10.1426 61.4795 10.0305C61.5471 9.91841 61.5809 9.77914 61.5809 9.61267C61.5809 9.44455 61.5471 9.30281 61.4795 9.18743C61.4136 9.07206 61.3122 8.9847 61.1754 8.92537C61.0403 8.86439 60.8697 8.83389 60.6636 8.83389H59.9417V13.022H58.8712ZM61.6056 10.7178L62.864 13.022H61.6822L60.451 10.7178H61.6056Z" fill="white"/>
<path d="M23.5724 8.55402L23.9604 9.34003C23.9775 9.37488 24.0028 9.40502 24.0342 9.42786C24.0655 9.45069 24.102 9.4655 24.1404 9.47101L25.0094 9.59802C25.0536 9.60446 25.0951 9.62312 25.1292 9.65192C25.1633 9.68071 25.1886 9.71846 25.2024 9.76093C25.2161 9.80339 25.2177 9.84884 25.2069 9.89215C25.1961 9.93546 25.1735 9.9749 25.1414 10.006L24.5134 10.618C24.4858 10.6452 24.4651 10.6787 24.4531 10.7156C24.441 10.7525 24.4381 10.7917 24.4444 10.83L24.5934 11.695C24.6007 11.739 24.5956 11.7842 24.5787 11.8255C24.5617 11.8668 24.5336 11.9025 24.4974 11.9287C24.4613 11.9549 24.4185 11.9705 24.374 11.9737C24.3295 11.9769 24.285 11.9677 24.2454 11.947L23.4684 11.539C23.4341 11.5208 23.3958 11.5113 23.3569 11.5113C23.318 11.5113 23.2798 11.5208 23.2454 11.539L22.4694 11.947C22.4299 11.9677 22.3853 11.9769 22.3408 11.9737C22.2963 11.9705 22.2536 11.9549 22.2174 11.9287C22.1813 11.9025 22.1531 11.8668 22.1362 11.8255C22.1192 11.7842 22.1141 11.739 22.1214 11.695L22.2694 10.83C22.2761 10.7918 22.2735 10.7525 22.2616 10.7156C22.2498 10.6786 22.2291 10.6451 22.2014 10.618L21.5724 10.006C21.5404 9.97483 21.5177 9.93535 21.507 9.89197C21.4963 9.84858 21.4979 9.80305 21.5118 9.76056C21.5256 9.71807 21.5511 9.68028 21.5853 9.65155C21.6196 9.62282 21.6612 9.6043 21.7054 9.59802L22.5734 9.47101C22.612 9.46557 22.6486 9.45081 22.6802 9.42798C22.7117 9.40515 22.7372 9.37496 22.7544 9.34003L23.1424 8.55402C23.1623 8.51397 23.1929 8.48029 23.2309 8.45673C23.2689 8.43317 23.3127 8.42065 23.3574 8.42065C23.4021 8.42065 23.4459 8.43317 23.4839 8.45673C23.5219 8.48029 23.5526 8.51397 23.5724 8.55402Z" fill="white"/>
<path d="M75.1212 8.55402L75.5102 9.34003C75.5273 9.37488 75.5526 9.40502 75.5839 9.42786C75.6153 9.45069 75.6518 9.4655 75.6902 9.47101L76.5582 9.59802C76.6025 9.6043 76.6441 9.62282 76.6783 9.65155C76.7125 9.68028 76.738 9.71807 76.7518 9.76056C76.7657 9.80305 76.7674 9.84858 76.7566 9.89197C76.7459 9.93535 76.7233 9.97483 76.6912 10.006L76.0632 10.618C76.0354 10.6451 76.0146 10.6786 76.0026 10.7155C75.9906 10.7524 75.9877 10.7917 75.9942 10.83L76.1422 11.695C76.1498 11.739 76.1449 11.7842 76.1281 11.8256C76.1113 11.8669 76.0833 11.9027 76.0471 11.929C76.011 11.9552 75.9683 11.9708 75.9238 11.974C75.8792 11.9772 75.8347 11.9678 75.7952 11.947L75.0182 11.539C74.9839 11.5208 74.9456 11.5113 74.9067 11.5113C74.8679 11.5113 74.8296 11.5208 74.7952 11.539L74.0192 11.947C73.9797 11.9677 73.9351 11.9769 73.8906 11.9737C73.8461 11.9705 73.8034 11.9549 73.7672 11.9287C73.731 11.9025 73.7029 11.8668 73.686 11.8255C73.669 11.7842 73.6639 11.739 73.6712 11.695L73.8192 10.83C73.826 10.7917 73.8232 10.7524 73.8112 10.7154C73.7992 10.6784 73.7782 10.6449 73.7502 10.618L73.1222 10.006C73.0902 9.97483 73.0675 9.93535 73.0568 9.89197C73.0461 9.84858 73.0477 9.80305 73.0616 9.76056C73.0754 9.71807 73.1009 9.68028 73.1352 9.65155C73.1694 9.62282 73.211 9.6043 73.2552 9.59802L74.1232 9.47101C74.1617 9.46567 74.1982 9.45089 74.2296 9.42804C74.261 9.40519 74.2863 9.37499 74.3032 9.34003L74.6922 8.55402C74.7119 8.51393 74.7424 8.48016 74.7804 8.45654C74.8183 8.43293 74.8621 8.42041 74.9067 8.42041C74.9514 8.42041 74.9952 8.43293 75.0331 8.45654C75.071 8.48016 75.1015 8.51393 75.1212 8.55402Z" fill="white"/>
</svg>
