<svg width="7" height="11" viewBox="0 0 7 11" fill="none" xmlns="http://www.w3.org/2000/svg">
<path d="M1.98898 10.273L5.98898 6.01898C6.11913 5.87728 6.19135 5.69188 6.19134 5.49948C6.19134 5.30708 6.11913 5.12169 5.98898 4.97998L1.98898 0.72699C1.92687 0.659146 1.85131 0.604965 1.76712 0.567902C1.68293 0.530838 1.59195 0.511719 1.49997 0.511719C1.40799 0.511719 1.317 0.530838 1.23282 0.567902C1.14863 0.604965 1.07307 0.659146 1.01096 0.72699C0.880809 0.868694 0.808593 1.05409 0.808593 1.24649C0.808593 1.43889 0.880809 1.62429 1.01096 1.76599L4.52298 5.49899L1.01096 9.23398C0.880809 9.37568 0.808594 9.56108 0.808594 9.75348C0.808594 9.94588 0.880809 10.1313 1.01096 10.273C1.07307 10.3408 1.14863 10.395 1.23282 10.4321C1.317 10.4691 1.40799 10.4883 1.49997 10.4883C1.59195 10.4883 1.68293 10.4691 1.76712 10.4321C1.85131 10.395 1.92687 10.3408 1.98898 10.273Z" fill="#92929C"/>
</svg>
