<svg width="11" height="7" viewBox="0 0 11 7" fill="none" xmlns="http://www.w3.org/2000/svg">
<path d="M0.72702 1.98898L4.98102 5.98898C5.12272 6.11913 5.30812 6.19135 5.50052 6.19135C5.69292 6.19135 5.87831 6.11913 6.02002 5.98898L10.273 1.98898C10.3409 1.92687 10.395 1.85131 10.4321 1.76712C10.4692 1.68293 10.4883 1.59195 10.4883 1.49997C10.4883 1.40799 10.4692 1.317 10.4321 1.23282C10.395 1.14863 10.3409 1.07307 10.273 1.01096C10.1313 0.880809 9.94591 0.808594 9.75351 0.808594C9.56111 0.808594 9.37571 0.880809 9.23401 1.01096L5.50101 4.52298L1.76602 1.01096C1.62432 0.880809 1.43892 0.808594 1.24652 0.808594C1.05412 0.808594 0.868725 0.880809 0.72702 1.01096C0.659177 1.07307 0.604996 1.14863 0.567932 1.23282C0.530869 1.317 0.511719 1.40799 0.511719 1.49997C0.511719 1.59195 0.530869 1.68293 0.567932 1.76712C0.604996 1.85131 0.659177 1.92687 0.72702 1.98898Z" fill="#92929C"/>
</svg>
