<svg width="27" height="26" viewBox="0 0 27 26" fill="none" xmlns="http://www.w3.org/2000/svg">
<path d="M20.7961 1.00293H6.29613C5.59896 1.00161 4.92979 1.27717 4.43568 1.76902C3.94158 2.26087 3.66299 2.92878 3.66113 3.62595V20.674C3.66299 21.371 3.94162 22.0388 4.43575 22.5305C4.92988 23.0222 5.59905 23.2975 6.29613 23.2959H15.0081C15.3376 23.296 15.6552 23.1734 15.8991 22.9519L22.9991 16.4739C23.1336 16.3513 23.241 16.2019 23.3145 16.0354C23.388 15.8689 23.426 15.6889 23.4261 15.5069V3.62195C23.4232 2.92634 23.1449 2.2602 22.6519 1.76935C22.159 1.27851 21.4918 1.00293 20.7961 1.00293V1.00293Z" stroke="#92929C" stroke-width="0.935" stroke-miterlimit="10"/>
<path d="M15.5254 23.2918V18.7029C15.5262 18.3575 15.595 18.0157 15.7279 17.697C15.8608 17.3783 16.0552 17.0889 16.3 16.8453C16.5448 16.6017 16.8352 16.4087 17.1546 16.2774C17.4739 16.1461 17.8161 16.0789 18.1614 16.0798H23.1034" stroke="#92929C" stroke-width="0.935" stroke-miterlimit="10"/>
<path d="M6.95898 5.58887H17.502" stroke="#92929C" stroke-width="0.935" stroke-miterlimit="10"/>
<path d="M6.95898 19.3579H12.23" stroke="#92929C" stroke-width="0.935" stroke-miterlimit="10"/>
<path d="M6.95898 14.7681H14.866" stroke="#92929C" stroke-width="0.935" stroke-miterlimit="10"/>
<path d="M6.95898 10.179H20.137" stroke="#92929C" stroke-width="0.935" stroke-miterlimit="10"/>
</svg>
