<svg width="27" height="25" viewBox="0 0 27 25" fill="none" xmlns="http://www.w3.org/2000/svg">
<path d="M21.5118 22.8281C22.0638 23.4486 22.8192 23.8516 23.642 23.9647C24.4647 24.0778 25.3008 23.8936 25.9998 23.4451C25.4588 23.1398 24.9931 22.7173 24.6366 22.2086C24.2802 21.6999 24.0421 21.1178 23.9398 20.5051C24.8177 19.209 25.2854 17.6786 25.2818 16.1131C25.2871 14.3621 24.7111 12.6589 23.6441 11.2705C22.5772 9.8821 21.0796 8.88707 19.3862 8.44149C17.6928 7.9959 15.8995 8.12495 14.2873 8.80837C12.6752 9.49179 11.3355 10.691 10.4783 12.2178C9.62105 13.7446 9.29483 15.5128 9.55076 17.245C9.80669 18.9772 10.6303 20.5755 11.8924 21.7892C13.1545 23.0029 14.7838 23.7634 16.5247 23.9514C18.2656 24.1395 20.0196 23.7444 21.5118 22.8281V22.8281Z" stroke="#92929C" stroke-width="0.935" stroke-miterlimit="10"/>
<path d="M7.50495 15.1871C6.85479 15.0075 6.23281 14.7383 5.65695 14.3871C5.15047 14.9549 4.45826 15.3236 3.70451 15.4271C2.95075 15.5307 2.18476 15.3623 1.54395 14.9521C2.04015 14.6729 2.46738 14.2859 2.79414 13.8197C3.12089 13.3534 3.33885 12.8198 3.43195 12.2581C2.62785 11.0694 2.19998 9.66623 2.20395 8.23109C2.21284 6.47902 2.85461 4.78917 4.01103 3.47291C5.16745 2.15665 6.7606 1.30264 8.49695 1.06825C10.2333 0.833854 11.9959 1.23488 13.4599 2.1974C14.9239 3.15992 15.9908 4.6191 16.464 6.3061" stroke="#92929C" stroke-width="0.935" stroke-miterlimit="10"/>
</svg>
