<svg width="13" height="27" viewBox="0 0 13 27" fill="none" xmlns="http://www.w3.org/2000/svg">
<path d="M12.7822 0.250099C12.7822 1.6561 12.7772 3.02712 12.7822 4.39512C12.7822 4.70112 12.6323 4.76409 12.3663 4.76109C11.5503 4.75042 10.7346 4.75042 9.91931 4.76109C9.74273 4.73371 9.56218 4.74768 9.39197 4.8021C9.22176 4.85652 9.06655 4.94982 8.9386 5.07456C8.81065 5.19931 8.7135 5.35208 8.65479 5.52085C8.59607 5.68963 8.57732 5.86975 8.60022 6.04697C8.58322 6.74697 8.60022 7.44699 8.60022 8.19199H12.8442C12.6772 9.99199 12.5162 11.73 12.3502 13.525H8.40723V26.867H3.07629V13.547H0.405273V8.22202H3.04224C3.04224 7.94902 3.03524 7.73507 3.04224 7.52207C3.02189 6.50518 3.06774 5.48811 3.17932 4.47715C3.28785 3.36101 3.79566 2.32154 4.60938 1.5499C5.42309 0.778266 6.48795 0.326135 7.60828 0.276955C9.29528 0.119955 11.0082 0.250099 12.7822 0.250099Z" fill="#92929C"/>
</svg>
