<svg width="23" height="23" viewBox="0 0 23 23" fill="none" xmlns="http://www.w3.org/2000/svg">
<path d="M20.6358 11.6341V6.80307C20.6363 6.79275 20.6363 6.78239 20.6358 6.77207C20.6268 6.48836 20.6031 6.20517 20.5649 5.92392C20.3914 4.90143 19.86 3.97404 19.0657 3.30722C18.2714 2.64041 17.2659 2.27773 16.2288 2.28403C12.9861 2.28403 9.74418 2.28403 6.50285 2.28403C6.22571 2.28277 5.94905 2.30814 5.6768 2.35996C4.6584 2.54859 3.73985 3.0922 3.08439 3.89414C2.42893 4.69607 2.07905 5.70451 2.09684 6.74008C2.09684 9.99942 2.09684 13.2594 2.09684 16.5201C2.09561 16.7206 2.1069 16.9209 2.13078 17.12C2.25466 18.1767 2.75978 19.1521 3.55143 19.8629C4.34308 20.5737 5.36692 20.9712 6.43083 20.9811C9.71983 20.9951 13.0089 20.9871 16.2989 20.9811C16.8223 20.9815 17.3409 20.8831 17.8278 20.691C18.6597 20.3663 19.3732 19.7961 19.8733 19.0562C20.3735 18.3164 20.6366 17.4419 20.6278 16.5489C20.6388 14.9099 20.6358 13.2721 20.6358 11.6341ZM11.3688 22.628H6.52885C5.11918 22.6406 3.75002 22.1566 2.66166 21.2606C1.5733 20.3646 0.835218 19.114 0.576824 17.7281C0.506041 17.3728 0.470578 17.0113 0.470867 16.649C0.461534 13.3044 0.461534 9.95975 0.470867 6.61508C0.482155 5.20756 0.985685 3.84839 1.89421 2.77329C2.80273 1.69818 4.05894 0.974975 5.44487 0.729098C5.79505 0.672064 6.14904 0.641888 6.50383 0.63901C9.75583 0.633676 13.0081 0.633676 16.2608 0.63901C17.6969 0.640969 19.085 1.15681 20.1737 2.09336C21.2625 3.0299 21.9802 4.32524 22.1968 5.74497C22.2426 6.03104 22.2661 6.32024 22.2669 6.60996C22.2722 9.95996 22.2722 13.3097 22.2669 16.659C22.2535 18.064 21.7498 19.4203 20.8429 20.4935C19.9361 21.5667 18.6829 22.2893 17.2998 22.537C16.9396 22.594 16.5756 22.6239 16.2109 22.6261C14.5959 22.6321 12.9828 22.628 11.3688 22.628Z" fill="#92929C"/>
<path d="M15.5425 11.6299C15.5352 10.8057 15.2841 10.0022 14.8211 9.32031C14.358 8.63844 13.7035 8.10878 12.9401 7.7981C12.1766 7.48741 11.3383 7.40946 10.5307 7.57422C9.72304 7.73898 8.98226 8.13896 8.40151 8.72388C7.82076 9.30879 7.42597 10.0526 7.26699 10.8613C7.108 11.6701 7.19194 12.5078 7.50808 13.269C7.82421 14.0303 8.35844 14.681 9.0436 15.1392C9.72876 15.5974 10.5342 15.8426 11.3584 15.844C11.9101 15.8429 12.4561 15.733 12.9652 15.5205C13.4743 15.308 13.9365 14.997 14.3252 14.6055C14.7139 14.214 15.0216 13.7496 15.2305 13.239C15.4394 12.7284 15.5454 12.1816 15.5425 11.6299ZM17.1804 11.6399C17.1686 12.7874 16.8175 13.9057 16.1714 14.854C15.5253 15.8024 14.613 16.5383 13.5495 16.9692C12.4859 17.4002 11.3186 17.507 10.1946 17.2759C9.07058 17.0448 8.04018 16.4862 7.23293 15.6707C6.42568 14.8551 5.87778 13.8187 5.65822 12.6924C5.43867 11.5661 5.55721 10.4001 5.99904 9.34106C6.44088 8.282 7.18621 7.37731 8.14113 6.74097C9.09606 6.10462 10.218 5.76495 11.3655 5.76489C12.9151 5.77468 14.3976 6.39862 15.4877 7.5C16.5778 8.60138 17.1866 10.0903 17.1804 11.6399Z" fill="#92929C"/>
</svg>
