<svg width="22" height="19" viewBox="0 0 22 19" fill="none" xmlns="http://www.w3.org/2000/svg">
<path d="M21.1569 1.30298C20.7249 2.16898 20.192 2.9789 19.727 3.8269C19.6659 3.89783 19.6306 3.98727 19.627 4.08081C20.427 3.89481 21.183 3.58698 21.981 3.42798C21.942 3.63498 21.759 3.73605 21.632 3.87305C21.088 4.46238 20.538 5.04423 19.982 5.6189C19.9092 5.68983 19.8522 5.77521 19.8146 5.86963C19.777 5.96404 19.7598 6.06546 19.7639 6.16699C19.8491 9.27664 18.7689 12.3058 16.7354 14.6599C14.7019 17.0141 11.862 18.5231 8.77297 18.8909C5.96512 19.2601 3.11688 18.6289 0.72793 17.1079C0.65393 17.0649 0.585894 17.0079 0.515894 16.9619C0.510894 16.9619 0.515894 16.9409 0.515894 16.9099C2.65787 17.0845 4.78778 16.4518 6.48696 15.136C5.51416 15.0706 4.58743 14.6971 3.84097 14.0698C3.2504 13.5568 2.784 12.9165 2.47695 12.197C2.44595 12.13 2.38793 12.0529 2.43093 11.9849C2.49193 11.8849 2.58594 11.968 2.66494 11.978C3.17933 12.0488 3.70305 12.0023 4.19692 11.842C4.04702 11.7418 3.88188 11.6664 3.70791 11.6189C2.94949 11.3458 2.27736 10.8759 1.76052 10.2573C1.24369 9.63874 0.90085 8.89376 0.766993 8.09888C0.760777 8.07818 0.755754 8.05716 0.751978 8.03589C0.737978 7.85389 0.643913 7.61288 0.759913 7.50488C0.875913 7.39688 1.05991 7.59891 1.20791 7.65991C1.64914 7.84878 2.12927 7.92915 2.60794 7.89404C2.15589 7.44411 1.76492 6.93674 1.44497 6.38501C1.09688 5.78235 0.895545 5.10605 0.857325 4.41113C0.819104 3.71622 0.944982 3.02221 1.22488 2.38501C1.41888 1.91801 1.42494 1.92194 1.75894 2.29394C3.32337 4.07893 5.33449 5.41568 7.58596 6.16699C8.53274 6.47482 9.51441 6.66246 10.508 6.72583C10.782 6.74483 10.8909 6.71291 10.8079 6.38891C10.6631 5.80197 10.639 5.19178 10.7368 4.59521C10.8347 3.99865 11.0526 3.4281 11.3773 2.91821C11.7021 2.40832 12.127 1.96957 12.6262 1.62866C13.1255 1.28775 13.6888 1.0517 14.2819 0.934813C15.0434 0.772097 15.8346 0.81539 16.5739 1.06006C17.3132 1.30472 17.9738 1.74201 18.4879 2.3269C18.5677 2.44116 18.6869 2.52189 18.8227 2.55347C18.9584 2.58504 19.1009 2.56537 19.2229 2.49805C19.819 2.21242 20.3784 1.85583 20.8889 1.43603C20.9659 1.37703 21.048 1.32699 21.128 1.27099L21.1569 1.30298Z" fill="#92929C"/>
</svg>
