<svg width="165" height="28" viewBox="0 0 165 28" fill="none" xmlns="http://www.w3.org/2000/svg">
<path d="M164.444 27.479H0.5V0.870972H164.444L157.571 14.171L164.444 27.479Z" fill="#EE7D62"/>
<path d="M33.4026 15.3443V10.3678H34.8774V15.3443C34.8774 15.8243 34.7721 16.237 34.5617 16.5823C34.3513 16.9242 34.0636 17.1873 33.6986 17.3714C33.3369 17.5555 32.9292 17.6476 32.4754 17.6476C32.0052 17.6476 31.5893 17.5687 31.2276 17.4109C30.8659 17.253 30.5815 17.0113 30.3743 16.6858C30.1672 16.357 30.0636 15.9411 30.0636 15.438H31.5482C31.5482 15.701 31.5843 15.9098 31.6567 16.0644C31.7323 16.2189 31.8392 16.3291 31.9773 16.3948C32.1154 16.4606 32.2814 16.4935 32.4754 16.4935C32.6628 16.4935 32.8256 16.4491 32.9637 16.3603C33.1018 16.2715 33.2086 16.1416 33.2843 15.9707C33.3632 15.7997 33.4026 15.5909 33.4026 15.3443ZM42.9789 16.3948V17.549H39.1565V16.3948H42.9789ZM39.6398 10.3678V17.549H38.1602V10.3678H39.6398ZM42.4807 13.2925V14.417H39.1565V13.2925H42.4807ZM42.9739 10.3678V11.5268H39.1565V10.3678H42.9739ZM45.8622 10.3678H48.5403C49.0894 10.3678 49.5613 10.45 49.9559 10.6144C50.3537 10.7788 50.6595 11.0221 50.8732 11.3443C51.087 11.6666 51.1938 12.0628 51.1938 12.533C51.1938 12.9177 51.1281 13.2481 50.9965 13.5243C50.8683 13.7972 50.6858 14.0258 50.4491 14.2099C50.2156 14.3907 49.9411 14.5354 49.6254 14.6439L49.1569 14.8905H46.8289L46.819 13.7364H48.5502C48.81 13.7364 49.0253 13.6904 49.1963 13.5983C49.3673 13.5062 49.4955 13.378 49.581 13.2136C49.6698 13.0492 49.7142 12.8585 49.7142 12.6415C49.7142 12.4113 49.6714 12.2124 49.5859 12.0447C49.5005 11.877 49.3706 11.7488 49.1963 11.66C49.022 11.5712 48.8034 11.5268 48.5403 11.5268H47.3418V17.549H45.8622V10.3678ZM49.8769 17.549L48.2395 14.348L49.803 14.3381L51.4602 17.4799V17.549H49.8769ZM54.3533 10.3678H57.0315C57.5806 10.3678 58.0524 10.45 58.447 10.6144C58.8449 10.7788 59.1507 11.0221 59.3644 11.3443C59.5781 11.6666 59.685 12.0628 59.685 12.533C59.685 12.9177 59.6192 13.2481 59.4877 13.5243C59.3595 13.7972 59.177 14.0258 58.9402 14.2099C58.7068 14.3907 58.4322 14.5354 58.1166 14.6439L57.648 14.8905H55.32L55.3102 13.7364H57.0414C57.3011 13.7364 57.5165 13.6904 57.6875 13.5983C57.8584 13.5062 57.9867 13.378 58.0722 13.2136C58.1609 13.0492 58.2053 12.8585 58.2053 12.6415C58.2053 12.4113 58.1626 12.2124 58.0771 12.0447C57.9916 11.877 57.8617 11.7488 57.6875 11.66C57.5132 11.5712 57.2945 11.5268 57.0315 11.5268H55.833V17.549H54.3533V10.3678ZM58.3681 17.549L56.7306 14.348L58.2941 14.3381L59.9513 17.4799V17.549H58.3681ZM63.5942 10.3678L65.0935 13.6427L66.5929 10.3678H68.2057L65.8432 14.9349V17.549H64.3439V14.9349L61.9764 10.3678H63.5942ZM76.0932 10.3678H77.3459L79.1906 15.6402L81.0352 10.3678H82.2879L79.6936 17.549H78.6875L76.0932 10.3678ZM75.4175 10.3678H76.6653L76.8922 15.507V17.549H75.4175V10.3678ZM81.7158 10.3678H82.9686V17.549H81.4889V15.507L81.7158 10.3678ZM90.4486 15.1667H91.9233C91.8937 15.6501 91.7606 16.0792 91.5238 16.454C91.2904 16.8289 90.9632 17.1215 90.5423 17.3319C90.1248 17.5424 89.6217 17.6476 89.0331 17.6476C88.5728 17.6476 88.1601 17.5687 87.7951 17.4109C87.4302 17.2497 87.1178 17.0196 86.858 16.7204C86.6016 16.4211 86.4059 16.0594 86.2711 15.6353C86.1363 15.2111 86.0689 14.736 86.0689 14.2099V13.7118C86.0689 13.1857 86.138 12.7105 86.2761 12.2864C86.4174 11.8589 86.618 11.4956 86.8778 11.1964C87.1408 10.8972 87.4548 10.667 87.8198 10.5059C88.1848 10.3448 88.5925 10.2642 89.043 10.2642C89.6414 10.2642 90.1461 10.3727 90.5571 10.5897C90.9714 10.8067 91.292 11.1059 91.5189 11.4874C91.7491 11.8688 91.8872 12.3028 91.9332 12.7894H90.4536C90.4371 12.5001 90.3796 12.2551 90.2809 12.0546C90.1823 11.8507 90.0327 11.6978 89.8321 11.5959C89.6348 11.4907 89.3718 11.438 89.043 11.438C88.7964 11.438 88.581 11.4841 88.3969 11.5761C88.2127 11.6682 88.0582 11.808 87.9332 11.9954C87.8083 12.1828 87.7146 12.4195 87.6521 12.7056C87.5929 12.9884 87.5633 13.3205 87.5633 13.7019V14.2099C87.5633 14.5815 87.5913 14.9086 87.6472 15.1914C87.7031 15.4709 87.7886 15.7076 87.9037 15.9016C88.022 16.0923 88.1733 16.237 88.3574 16.3356C88.5448 16.431 88.7701 16.4787 89.0331 16.4787C89.3422 16.4787 89.597 16.4294 89.7976 16.3307C89.9982 16.2321 90.1511 16.0858 90.2563 15.8918C90.3648 15.6978 90.4289 15.4561 90.4486 15.1667ZM98.8165 16.4836L100.76 18.0224L99.8276 18.8313L97.9139 17.2925L98.8165 16.4836ZM100.809 13.7907V14.131C100.809 14.6768 100.735 15.1667 100.587 15.6008C100.442 16.0348 100.234 16.4047 99.9607 16.7105C99.6878 17.013 99.3656 17.2448 98.994 17.4059C98.6225 17.567 98.2098 17.6476 97.7561 17.6476C97.3056 17.6476 96.893 17.567 96.5181 17.4059C96.1433 17.2448 95.8194 17.013 95.5465 16.7105C95.2736 16.4047 95.0615 16.0348 94.9102 15.6008C94.7623 15.1667 94.6883 14.6768 94.6883 14.131V13.7907C94.6883 13.2416 94.7623 12.7516 94.9102 12.3209C95.0615 11.8869 95.2719 11.517 95.5416 11.2112C95.8112 10.9054 96.1334 10.6719 96.5082 10.5108C96.8831 10.3497 97.2957 10.2691 97.7462 10.2691C98.2 10.2691 98.6126 10.3497 98.9842 10.5108C99.359 10.6719 99.6829 10.9054 99.9558 11.2112C100.229 11.517 100.439 11.8869 100.587 12.3209C100.735 12.7516 100.809 13.2416 100.809 13.7907ZM99.3146 14.131V13.7808C99.3146 13.3994 99.2785 13.064 99.2061 12.7746C99.1371 12.4853 99.0351 12.242 98.9003 12.0447C98.7688 11.8474 98.606 11.6994 98.4121 11.6008C98.2181 11.4989 97.9961 11.4479 97.7462 11.4479C97.4963 11.4479 97.2744 11.4989 97.0804 11.6008C96.8864 11.6994 96.7236 11.8474 96.5921 12.0447C96.4606 12.242 96.3603 12.4853 96.2912 12.7746C96.2222 13.064 96.1877 13.3994 96.1877 13.7808V14.131C96.1877 14.5091 96.2222 14.8445 96.2912 15.1371C96.3603 15.4265 96.4606 15.6715 96.5921 15.872C96.7269 16.0693 96.8913 16.2189 97.0853 16.3209C97.2826 16.4228 97.5062 16.4737 97.7561 16.4737C98.006 16.4737 98.2263 16.4228 98.417 16.3209C98.611 16.2189 98.7737 16.0693 98.9053 15.872C99.0401 15.6715 99.142 15.4265 99.2111 15.1371C99.2801 14.8445 99.3146 14.5091 99.3146 14.131ZM107.865 10.3678H109.34V15.1125C109.34 15.6649 109.221 16.1301 108.985 16.5083C108.751 16.8864 108.427 17.1708 108.013 17.3615C107.602 17.5522 107.128 17.6476 106.592 17.6476C106.057 17.6476 105.58 17.5522 105.162 17.3615C104.748 17.1708 104.422 16.8864 104.186 16.5083C103.952 16.1301 103.835 15.6649 103.835 15.1125V10.3678H105.315V15.1125C105.315 15.4347 105.366 15.6978 105.468 15.9016C105.57 16.1055 105.716 16.2551 105.907 16.3504C106.101 16.4458 106.329 16.4935 106.592 16.4935C106.862 16.4935 107.091 16.4458 107.278 16.3504C107.469 16.2551 107.613 16.1055 107.712 15.9016C107.814 15.6978 107.865 15.4347 107.865 15.1125V10.3678ZM114.151 10.3678V17.549H112.677V10.3678H114.151ZM117.558 10.3678H120.236C120.785 10.3678 121.257 10.45 121.651 10.6144C122.049 10.7788 122.355 11.0221 122.569 11.3443C122.782 11.6666 122.889 12.0628 122.889 12.533C122.889 12.9177 122.823 13.2481 122.692 13.5243C122.564 13.7972 122.381 14.0258 122.144 14.2099C121.911 14.3907 121.636 14.5354 121.321 14.6439L120.852 14.8905H118.524L118.514 13.7364H120.246C120.505 13.7364 120.721 13.6904 120.892 13.5983C121.063 13.5062 121.191 13.378 121.276 13.2136C121.365 13.0492 121.41 12.8585 121.41 12.6415C121.41 12.4113 121.367 12.2124 121.281 12.0447C121.196 11.877 121.066 11.7488 120.892 11.66C120.717 11.5712 120.499 11.5268 120.236 11.5268H119.037V17.549H117.558V10.3678ZM121.572 17.549L119.935 14.348L121.498 14.3381L123.156 17.4799V17.549H121.572ZM130.867 16.3948V17.549H127.045V16.3948H130.867ZM127.528 10.3678V17.549H126.049V10.3678H127.528ZM130.369 13.2925V14.417H127.045V13.2925H130.369ZM130.862 10.3678V11.5268H127.045V10.3678H130.862Z" fill="white"/>
<path d="M18.3362 12.223L18.9262 13.363C18.9534 13.4144 18.9924 13.4585 19.04 13.4917C19.0877 13.5249 19.1426 13.5462 19.2002 13.554L20.5202 13.736C20.5858 13.7428 20.648 13.7683 20.6995 13.8094C20.751 13.8506 20.7896 13.9058 20.8107 13.9683C20.8318 14.0307 20.8344 14.0979 20.8184 14.1619C20.8023 14.2258 20.7682 14.2839 20.7201 14.329L19.7652 15.217C19.7232 15.2555 19.6917 15.3037 19.6733 15.3575C19.655 15.4114 19.6504 15.469 19.6601 15.525L19.8861 16.7791C19.895 16.845 19.8855 16.9121 19.8586 16.973C19.8317 17.0339 19.7885 17.0861 19.7338 17.124C19.6791 17.1619 19.6149 17.1839 19.5484 17.1876C19.482 17.1913 19.4158 17.1766 19.3572 17.145L18.1772 16.553C18.1245 16.5268 18.0665 16.5132 18.0077 16.5132C17.9488 16.5132 17.8908 16.5268 17.8382 16.553L16.6571 17.145C16.5985 17.1766 16.5324 17.1913 16.4659 17.1876C16.3994 17.1839 16.3353 17.1619 16.2806 17.124C16.2258 17.0861 16.1826 17.0339 16.1557 16.973C16.1288 16.9121 16.1193 16.845 16.1281 16.7791L16.3542 15.525C16.3639 15.469 16.3594 15.4114 16.341 15.3575C16.3227 15.3037 16.2911 15.2555 16.2492 15.217L15.2942 14.329C15.2461 14.2839 15.2119 14.2258 15.1959 14.1619C15.1798 14.0979 15.1825 14.0307 15.2036 13.9683C15.2247 13.9058 15.2633 13.8506 15.3148 13.8094C15.3663 13.7683 15.4286 13.7428 15.4942 13.736L16.8142 13.554C16.8718 13.5462 16.9266 13.5249 16.9743 13.4917C17.0219 13.4585 17.061 13.4144 17.0882 13.363L17.6781 12.223C17.7097 12.1631 17.7571 12.113 17.815 12.078C17.873 12.043 17.9395 12.0247 18.0072 12.0247C18.0749 12.0247 18.1413 12.043 18.1993 12.078C18.2572 12.113 18.3046 12.1631 18.3362 12.223Z" fill="white"/>
<path d="M140.12 12.223L140.711 13.363C140.738 13.4144 140.777 13.4586 140.825 13.4918C140.873 13.5251 140.927 13.5463 140.985 13.554L142.305 13.736C142.371 13.7428 142.433 13.7683 142.484 13.8094C142.536 13.8506 142.575 13.9058 142.596 13.9683C142.617 14.0307 142.619 14.0979 142.603 14.1619C142.587 14.2258 142.553 14.2839 142.505 14.329L141.55 15.217C141.509 15.256 141.478 15.3045 141.461 15.3583C141.443 15.4121 141.44 15.4694 141.45 15.525L141.676 16.7791C141.685 16.845 141.675 16.9121 141.649 16.973C141.622 17.0339 141.578 17.0861 141.524 17.124C141.469 17.1619 141.405 17.1839 141.338 17.1876C141.272 17.1913 141.206 17.1766 141.147 17.145L139.966 16.553C139.913 16.5268 139.855 16.5132 139.797 16.5132C139.738 16.5132 139.68 16.5268 139.627 16.553L138.447 17.145C138.389 17.1766 138.322 17.1913 138.256 17.1876C138.189 17.1839 138.125 17.1619 138.07 17.124C138.016 17.0861 137.973 17.0339 137.946 16.973C137.919 16.9121 137.909 16.845 137.918 16.7791L138.143 15.525C138.154 15.4694 138.15 15.412 138.133 15.3582C138.115 15.3043 138.084 15.2558 138.043 15.217L137.088 14.329C137.04 14.2839 137.006 14.2258 136.99 14.1619C136.974 14.0979 136.976 14.0307 136.998 13.9683C137.019 13.9058 137.057 13.8506 137.109 13.8094C137.16 13.7683 137.223 13.7428 137.288 13.736L138.607 13.554C138.665 13.5464 138.72 13.5252 138.768 13.4919C138.816 13.4587 138.855 13.4145 138.882 13.363L139.472 12.223C139.504 12.1656 139.552 12.1178 139.608 12.0846C139.665 12.0513 139.73 12.0338 139.796 12.0338C139.862 12.0338 139.927 12.0513 139.984 12.0846C140.041 12.1178 140.088 12.1656 140.12 12.223Z" fill="white"/>
</svg>
