<svg width="165" height="28" viewBox="0 0 165 28" fill="none" xmlns="http://www.w3.org/2000/svg">
<path d="M164.444 27.389H0.5V0.781006H164.444L157.571 14.0811L164.444 27.389Z" fill="#649D66"/>
<path d="M42.7089 13.6997V14.04C42.7089 14.5859 42.635 15.0758 42.487 15.5098C42.339 15.9438 42.1302 16.3138 41.8606 16.6195C41.591 16.922 41.2688 17.1539 40.8939 17.315C40.5224 17.4761 40.1097 17.5567 39.656 17.5567C39.2055 17.5567 38.7928 17.4761 38.418 17.315C38.0464 17.1539 37.7242 16.922 37.4513 16.6195C37.1784 16.3138 36.9663 15.9438 36.8151 15.5098C36.6671 15.0758 36.5931 14.5859 36.5931 14.04V13.6997C36.5931 13.1506 36.6671 12.6607 36.8151 12.23C36.963 11.7959 37.1718 11.426 37.4414 11.1202C37.7143 10.8144 38.0366 10.581 38.4081 10.4199C38.783 10.2587 39.1956 10.1782 39.6461 10.1782C40.0999 10.1782 40.5125 10.2587 40.8841 10.4199C41.2589 10.581 41.5811 10.8144 41.8508 11.1202C42.1237 11.426 42.3341 11.7959 42.4821 12.23C42.6333 12.6607 42.7089 13.1506 42.7089 13.6997ZM41.2145 14.04V13.6899C41.2145 13.3084 41.18 12.9731 41.1109 12.6837C41.0419 12.3944 40.94 12.151 40.8051 11.9538C40.6703 11.7565 40.5059 11.6085 40.3119 11.5099C40.1179 11.4079 39.896 11.357 39.6461 11.357C39.3962 11.357 39.1743 11.4079 38.9803 11.5099C38.7895 11.6085 38.6268 11.7565 38.492 11.9538C38.3605 12.151 38.2602 12.3944 38.1911 12.6837C38.1221 12.9731 38.0875 13.3084 38.0875 13.6899V14.04C38.0875 14.4182 38.1221 14.7536 38.1911 15.0462C38.2602 15.3355 38.3621 15.5805 38.4969 15.7811C38.6317 15.9784 38.7961 16.128 38.9901 16.2299C39.1841 16.3318 39.4061 16.3828 39.656 16.3828C39.9059 16.3828 40.1278 16.3318 40.3218 16.2299C40.5158 16.128 40.6786 15.9784 40.8101 15.7811C40.9416 15.5805 41.0419 15.3355 41.1109 15.0462C41.18 14.7536 41.2145 14.4182 41.2145 14.04ZM48.591 14.8982H46.7612V13.7441H48.591C48.8738 13.7441 49.1039 13.6981 49.2815 13.606C49.4591 13.5107 49.5889 13.3791 49.6711 13.2114C49.7533 13.0438 49.7944 12.8547 49.7944 12.6443C49.7944 12.4305 49.7533 12.2316 49.6711 12.0475C49.5889 11.8633 49.4591 11.7154 49.2815 11.6036C49.1039 11.4918 48.8738 11.4359 48.591 11.4359H47.2741V17.458H45.7945V10.2768H48.591C49.1533 10.2768 49.635 10.3788 50.0361 10.5826C50.4406 10.7832 50.7496 11.061 50.9634 11.4162C51.1771 11.7713 51.2839 12.1773 51.2839 12.6344C51.2839 13.098 51.1771 13.4992 50.9634 13.8378C50.7496 14.1765 50.4406 14.4379 50.0361 14.622C49.635 14.8062 49.1533 14.8982 48.591 14.8982ZM57.1216 14.8982H55.2918V13.7441H57.1216C57.4044 13.7441 57.6346 13.6981 57.8121 13.606C57.9897 13.5107 58.1195 13.3791 58.2018 13.2114C58.284 13.0438 58.3251 12.8547 58.3251 12.6443C58.3251 12.4305 58.284 12.2316 58.2018 12.0475C58.1195 11.8633 57.9897 11.7154 57.8121 11.6036C57.6346 11.4918 57.4044 11.4359 57.1216 11.4359H55.8047V17.458H54.3251V10.2768H57.1216C57.6839 10.2768 58.1656 10.3788 58.5667 10.5826C58.9712 10.7832 59.2802 11.061 59.494 11.4162C59.7077 11.7713 59.8146 12.1773 59.8146 12.6344C59.8146 13.098 59.7077 13.4992 59.494 13.8378C59.2802 14.1765 58.9712 14.4379 58.5667 14.622C58.1656 14.8062 57.6839 14.8982 57.1216 14.8982ZM68.7545 13.6997V14.04C68.7545 14.5859 68.6806 15.0758 68.5326 15.5098C68.3846 15.9438 68.1758 16.3138 67.9062 16.6195C67.6366 16.922 67.3144 17.1539 66.9395 17.315C66.568 17.4761 66.1553 17.5567 65.7015 17.5567C65.2511 17.5567 64.8384 17.4761 64.4636 17.315C64.092 17.1539 63.7698 16.922 63.4969 16.6195C63.224 16.3138 63.0119 15.9438 62.8606 15.5098C62.7127 15.0758 62.6387 14.5859 62.6387 14.04V13.6997C62.6387 13.1506 62.7127 12.6607 62.8606 12.23C63.0086 11.7959 63.2174 11.426 63.487 11.1202C63.7599 10.8144 64.0822 10.581 64.4537 10.4199C64.8286 10.2587 65.2412 10.1782 65.6917 10.1782C66.1454 10.1782 66.5581 10.2587 66.9296 10.4199C67.3045 10.581 67.6267 10.8144 67.8963 11.1202C68.1693 11.426 68.3797 11.7959 68.5277 12.23C68.6789 12.6607 68.7545 13.1506 68.7545 13.6997ZM67.2601 14.04V13.6899C67.2601 13.3084 67.2256 12.9731 67.1565 12.6837C67.0875 12.3944 66.9855 12.151 66.8507 11.9538C66.7159 11.7565 66.5515 11.6085 66.3575 11.5099C66.1635 11.4079 65.9416 11.357 65.6917 11.357C65.4418 11.357 65.2198 11.4079 65.0258 11.5099C64.8351 11.6085 64.6724 11.7565 64.5376 11.9538C64.406 12.151 64.3058 12.3944 64.2367 12.6837C64.1677 12.9731 64.1331 13.3084 64.1331 13.6899V14.04C64.1331 14.4182 64.1677 14.7536 64.2367 15.0462C64.3058 15.3355 64.4077 15.5805 64.5425 15.7811C64.6773 15.9784 64.8417 16.128 65.0357 16.2299C65.2297 16.3318 65.4517 16.3828 65.7015 16.3828C65.9514 16.3828 66.1734 16.3318 66.3674 16.2299C66.5614 16.128 66.7241 15.9784 66.8557 15.7811C66.9872 15.5805 67.0875 15.3355 67.1565 15.0462C67.2256 14.7536 67.2601 14.4182 67.2601 14.04ZM71.8401 10.2768H74.5182C75.0673 10.2768 75.5392 10.359 75.9337 10.5234C76.3316 10.6878 76.6374 10.9312 76.8511 11.2534C77.0648 11.5756 77.1717 11.9718 77.1717 12.442C77.1717 12.8267 77.1059 13.1572 76.9744 13.4334C76.8462 13.7063 76.6637 13.9348 76.427 14.119C76.1935 14.2998 75.9189 14.4445 75.6033 14.553L75.1347 14.7996H72.8068L72.7969 13.6455H74.5281C74.7878 13.6455 75.0032 13.5994 75.1742 13.5074C75.3452 13.4153 75.4734 13.2871 75.5589 13.1227C75.6477 12.9583 75.6921 12.7676 75.6921 12.5505C75.6921 12.3204 75.6493 12.1214 75.5638 11.9538C75.4783 11.7861 75.3485 11.6578 75.1742 11.569C74.9999 11.4803 74.7813 11.4359 74.5182 11.4359H73.3197V17.458H71.8401V10.2768ZM75.8548 17.458L74.2174 14.2571L75.7808 14.2472L77.438 17.389V17.458H75.8548ZM83.2461 10.2768V17.458H81.7714V10.2768H83.2461ZM85.4557 10.2768V11.4359H79.5963V10.2768H85.4557ZM92.2847 10.2768H93.7594V15.0215C93.7594 15.5739 93.6411 16.0392 93.4043 16.4173C93.1709 16.7955 92.847 17.0799 92.4327 17.2706C92.0217 17.4613 91.5482 17.5567 91.0122 17.5567C90.4763 17.5567 89.9995 17.4613 89.5819 17.2706C89.1676 17.0799 88.8421 16.7955 88.6054 16.4173C88.3719 16.0392 88.2552 15.5739 88.2552 15.0215V10.2768H89.7348V15.0215C89.7348 15.3438 89.7858 15.6068 89.8877 15.8107C89.9896 16.0145 90.136 16.1641 90.3267 16.2595C90.5207 16.3549 90.7492 16.4025 91.0122 16.4025C91.2819 16.4025 91.5104 16.3549 91.6978 16.2595C91.8885 16.1641 92.0332 16.0145 92.1318 15.8107C92.2338 15.6068 92.2847 15.3438 92.2847 15.0215V10.2768ZM102.842 10.2768V17.458H101.363L98.4775 12.6443V17.458H96.9979V10.2768H98.4775L101.368 15.0955V10.2768H102.842ZM107.723 10.2768V17.458H106.249V10.2768H107.723ZM114.868 15.5789C114.868 15.4506 114.848 15.3355 114.809 15.2336C114.773 15.1284 114.704 15.033 114.602 14.9476C114.5 14.8588 114.357 14.7716 114.173 14.6862C113.988 14.6007 113.75 14.5119 113.457 14.4198C113.132 14.3146 112.823 14.1962 112.53 14.0647C112.241 13.9332 111.984 13.7803 111.761 13.606C111.54 13.4285 111.366 13.223 111.238 12.9895C111.113 12.756 111.05 12.4848 111.05 12.1757C111.05 11.8765 111.116 11.6052 111.248 11.3619C111.379 11.1153 111.563 10.9049 111.8 10.7306C112.037 10.553 112.316 10.4166 112.639 10.3212C112.964 10.2259 113.321 10.1782 113.709 10.1782C114.238 10.1782 114.7 10.2735 115.095 10.4642C115.489 10.655 115.795 10.9164 116.012 11.2485C116.233 11.5806 116.343 11.9603 116.343 12.3878H114.873C114.873 12.1773 114.829 11.9932 114.74 11.8354C114.654 11.6743 114.523 11.5477 114.345 11.4556C114.171 11.3635 113.951 11.3175 113.684 11.3175C113.428 11.3175 113.214 11.357 113.043 11.4359C112.872 11.5115 112.744 11.6151 112.658 11.7466C112.573 11.8748 112.53 12.0195 112.53 12.1806C112.53 12.3023 112.56 12.4124 112.619 12.5111C112.681 12.6097 112.773 12.7018 112.895 12.7873C113.017 12.8728 113.166 12.9533 113.344 13.029C113.521 13.1046 113.727 13.1786 113.96 13.2509C114.352 13.3693 114.695 13.5024 114.991 13.6504C115.29 13.7984 115.54 13.9644 115.741 14.1485C115.942 14.3327 116.093 14.5415 116.195 14.7749C116.297 15.0084 116.348 15.2731 116.348 15.569C116.348 15.8814 116.287 16.1609 116.165 16.4075C116.043 16.6541 115.868 16.8629 115.637 17.0338C115.407 17.2048 115.133 17.3347 114.814 17.4235C114.495 17.5123 114.138 17.5567 113.743 17.5567C113.388 17.5567 113.038 17.5106 112.693 17.4186C112.348 17.3232 112.034 17.1802 111.751 16.9895C111.471 16.7987 111.248 16.5554 111.08 16.2595C110.912 15.9636 110.829 15.6134 110.829 15.209H112.313C112.313 15.4325 112.348 15.6216 112.417 15.7762C112.486 15.9307 112.583 16.0556 112.708 16.151C112.836 16.2463 112.987 16.3154 113.161 16.3581C113.339 16.4009 113.533 16.4223 113.743 16.4223C114 16.4223 114.21 16.3861 114.375 16.3138C114.542 16.2414 114.666 16.1411 114.745 16.0129C114.827 15.8847 114.868 15.74 114.868 15.5789ZM122.585 10.2768V17.458H121.11V10.2768H122.585ZM124.794 10.2768V11.4359H118.935V10.2768H124.794Z" fill="white"/>
<path d="M23.8613 12.1331L24.4513 13.274C24.4785 13.3253 24.5176 13.3692 24.5652 13.4022C24.6129 13.4353 24.6677 13.4564 24.7253 13.464L26.0453 13.647C26.1109 13.6538 26.1731 13.6793 26.2246 13.7205C26.2762 13.7616 26.3148 13.8168 26.3358 13.8793C26.3569 13.9418 26.3596 14.0089 26.3435 14.0729C26.3275 14.1368 26.2934 14.1949 26.2453 14.24L25.2903 15.1281C25.2493 15.1668 25.2187 15.2152 25.2013 15.2688C25.1838 15.3224 25.18 15.3796 25.1903 15.4351L25.4163 16.689C25.425 16.7549 25.4154 16.8221 25.3885 16.8829C25.3616 16.9438 25.3184 16.996 25.2638 17.0339C25.2091 17.0719 25.1451 17.094 25.0786 17.0979C25.0122 17.1018 24.946 17.0873 24.8873 17.056L23.7072 16.464C23.6547 16.4374 23.5966 16.4235 23.5378 16.4235C23.4789 16.4235 23.4208 16.4374 23.3683 16.464L22.1873 17.056C22.1286 17.0873 22.0624 17.1018 21.9959 17.0979C21.9295 17.094 21.8655 17.0719 21.8108 17.0339C21.7562 16.996 21.713 16.9438 21.6861 16.8829C21.6592 16.8221 21.6496 16.7549 21.6583 16.689L21.8842 15.4351C21.8945 15.3796 21.8908 15.3224 21.8733 15.2688C21.8559 15.2152 21.8252 15.1668 21.7843 15.1281L20.8293 14.24C20.7812 14.1949 20.7471 14.1368 20.7311 14.0729C20.715 14.0089 20.7177 13.9418 20.7387 13.8793C20.7598 13.8168 20.7984 13.7616 20.8499 13.7205C20.9014 13.6793 20.9637 13.6538 21.0293 13.647L22.3493 13.464C22.4068 13.4564 22.4616 13.4353 22.5093 13.4022C22.557 13.3692 22.596 13.3253 22.6233 13.274L23.2133 12.1331C23.2459 12.0759 23.293 12.0283 23.3499 11.9952C23.4069 11.9622 23.4715 11.9448 23.5373 11.9448C23.6031 11.9448 23.6677 11.9622 23.7246 11.9952C23.7815 12.0283 23.8287 12.0759 23.8613 12.1331Z" fill="white"/>
<path d="M133.806 12.1331L134.397 13.274C134.424 13.3253 134.463 13.3693 134.51 13.4023C134.558 13.4354 134.613 13.4565 134.671 13.464L135.991 13.647C136.056 13.6538 136.118 13.6793 136.17 13.7205C136.221 13.7616 136.26 13.8168 136.281 13.8793C136.302 13.9418 136.305 14.0089 136.289 14.0729C136.273 14.1368 136.239 14.1949 136.191 14.24L135.236 15.1281C135.195 15.1668 135.164 15.2152 135.147 15.2688C135.129 15.3224 135.125 15.3796 135.136 15.4351L135.361 16.689C135.37 16.7549 135.36 16.822 135.333 16.8829C135.307 16.9438 135.264 16.9962 135.209 17.0342C135.154 17.0721 135.09 17.0943 135.024 17.0981C134.957 17.102 134.891 17.0874 134.833 17.056L133.652 16.464C133.599 16.4374 133.541 16.4235 133.482 16.4235C133.423 16.4235 133.365 16.4374 133.313 16.464L132.132 17.056C132.073 17.0874 132.007 17.102 131.94 17.0981C131.874 17.0943 131.81 17.0721 131.755 17.0342C131.701 16.9962 131.658 16.9438 131.631 16.8829C131.604 16.822 131.595 16.7549 131.604 16.689L131.829 15.4351C131.839 15.3796 131.836 15.3223 131.818 15.2687C131.801 15.215 131.77 15.1667 131.729 15.1281L130.774 14.24C130.726 14.1949 130.691 14.1368 130.675 14.0729C130.659 14.0089 130.662 13.9418 130.683 13.8793C130.704 13.8168 130.743 13.7616 130.794 13.7205C130.846 13.6793 130.908 13.6538 130.974 13.647L132.294 13.464C132.351 13.4564 132.406 13.4353 132.454 13.4022C132.502 13.3692 132.541 13.3253 132.569 13.274L133.159 12.1331C133.191 12.0759 133.238 12.0282 133.295 11.9951C133.352 11.962 133.416 11.9447 133.482 11.9447C133.548 11.9447 133.612 11.962 133.669 11.9951C133.726 12.0282 133.773 12.0759 133.806 12.1331Z" fill="white"/>
</svg>
