<svg width="165" height="28" viewBox="0 0 165 28" fill="none" xmlns="http://www.w3.org/2000/svg">
<path d="M164.444 27.781L0.5 27L0.627014 0.392944L164.57 1.17603L157.633 14.447L164.444 27.781Z" fill="#53ABB7"/>
<path d="M36.5162 14.7847L34.6864 14.776L34.692 13.6219L36.5218 13.6306C36.8045 13.632 37.0349 13.587 37.2129 13.4958C37.3909 13.4013 37.5214 13.2704 37.6044 13.1031C37.6874 12.9358 37.7294 12.7469 37.7304 12.5365C37.7315 12.3228 37.6913 12.1237 37.61 11.9391C37.5287 11.7546 37.3995 11.606 37.2225 11.4934C37.0455 11.3808 36.8156 11.3238 36.5328 11.3224L35.2159 11.3161L35.1871 17.3382L33.7075 17.3311L33.7418 10.15L36.5383 10.1634C37.1006 10.1661 37.5818 10.2703 37.982 10.4761C38.3854 10.6786 38.6932 10.9579 38.9052 11.314C39.1172 11.6701 39.2222 12.0767 39.22 12.5338C39.2178 12.9974 39.109 13.398 38.8936 13.7357C38.6783 14.0733 38.368 14.3332 37.9626 14.5154C37.5606 14.6976 37.0785 14.7874 36.5162 14.7847ZM42.2724 10.1908L44.9505 10.2036C45.4996 10.2062 45.971 10.2907 46.3648 10.457C46.7619 10.6233 47.0665 10.868 47.2787 11.1913C47.4909 11.5146 47.5958 11.9113 47.5936 12.3815C47.5917 12.7662 47.5244 13.0963 47.3916 13.3719C47.262 13.6442 47.0784 13.8718 46.8408 14.0548C46.6065 14.2345 46.3313 14.3779 46.0151 14.4849L45.5454 14.7293L43.2174 14.7181L43.2131 13.564L44.9442 13.5722C45.204 13.5735 45.4196 13.5285 45.591 13.4372C45.7624 13.346 45.8913 13.2184 45.9775 13.0544C46.0671 12.8904 46.1124 12.6999 46.1134 12.4829C46.1145 12.2527 46.0727 12.0536 45.9881 11.8855C45.9034 11.7174 45.7741 11.5885 45.6003 11.4989C45.4264 11.4093 45.208 11.3639 44.9449 11.3626L43.7464 11.3569L43.7176 17.379L42.238 17.3719L42.2724 10.1908ZM46.2527 17.3911L44.6306 14.1823L46.1941 14.1799L47.8362 17.3296L47.8359 17.3987L46.2527 17.3911ZM56.6458 13.6825L56.6442 14.0228C56.6416 14.5686 56.5652 15.0582 56.4152 15.4915C56.2652 15.9248 56.0546 16.2937 55.7835 16.5982C55.5125 16.8994 55.1891 17.1297 54.8135 17.289C54.4412 17.4483 54.0282 17.5269 53.5744 17.5247C53.1239 17.5226 52.7117 17.4401 52.3376 17.2771C51.9668 17.1143 51.6457 16.8809 51.3743 16.5771C51.1028 16.27 50.8925 15.8991 50.7433 15.4643C50.5974 15.0296 50.5258 14.5393 50.5284 13.9935L50.53 13.6532C50.5327 13.1041 50.609 12.6145 50.759 12.1845C50.909 11.7512 51.1196 11.3823 51.3907 11.0778C51.6651 10.7733 51.9884 10.5414 52.3607 10.3821C52.7363 10.2227 53.1494 10.1442 53.5998 10.1463C54.0536 10.1485 54.4658 10.231 54.8366 10.3939C55.2107 10.5568 55.5318 10.7918 55.8 11.0989C56.0714 11.406 56.2801 11.7769 56.426 12.2116C56.5751 12.6431 56.6484 13.1334 56.6458 13.6825ZM55.1498 14.0156L55.1514 13.6654C55.1533 13.284 55.1203 12.9485 55.0527 12.6588C54.985 12.3691 54.8842 12.1253 54.7504 11.9274C54.6165 11.7295 54.4528 11.5807 54.2593 11.4812C54.0658 11.3783 53.8441 11.3263 53.5942 11.3251C53.3443 11.3239 53.1221 11.3738 52.9276 11.4748C52.7365 11.5725 52.573 11.7197 52.4372 11.9163C52.3048 12.113 52.2033 12.3558 52.1329 12.6448C52.0625 12.9339 52.0263 13.2691 52.0245 13.6505L52.0228 14.0007C52.021 14.3788 52.0539 14.7143 52.1216 15.0073C52.1893 15.297 52.29 15.5424 52.4239 15.7437C52.5577 15.9416 52.7214 16.092 52.9149 16.1948C53.1084 16.2977 53.3301 16.3497 53.58 16.3509C53.8299 16.3521 54.0521 16.3022 54.2466 16.2012C54.4411 16.1002 54.6045 15.9514 54.737 15.7547C54.8695 15.5548 54.9709 15.3103 55.0414 15.0213C55.1118 14.729 55.148 14.3938 55.1498 14.0156ZM61.2273 10.2814L61.193 17.4625L59.7133 17.4555L59.7477 10.2744L61.2273 10.2814ZM64.0732 13.3629L64.0677 14.517L60.8027 14.5014L60.8082 13.3472L64.0732 13.3629ZM64.4331 10.2968L64.4276 11.4558L60.8173 11.4385L60.8229 10.2795L64.4331 10.2968ZM68.8848 10.3181L68.8505 17.4992L67.3758 17.4921L67.4101 10.311L68.8848 10.3181ZM75.3537 10.349L75.3194 17.5301L73.8447 17.523L73.8791 10.3419L75.3537 10.349ZM77.5633 10.3596L77.5578 11.5186L71.6985 11.4906L71.704 10.3315L77.5633 10.3596ZM86.1757 10.4007L86.1414 17.5818L84.6617 17.5748L84.6961 10.3937L86.1757 10.4007ZM89.0216 13.4822L89.0161 14.6363L85.7511 14.6207L85.7566 13.4666L89.0216 13.4822ZM89.3815 10.4161L89.376 11.5751L85.7657 11.5578L85.7713 10.3988L89.3815 10.4161ZM93.8332 10.4374L93.7989 17.6185L92.3242 17.6114L92.3585 10.4303L93.8332 10.4374ZM103.084 10.4816L103.049 17.6627L101.57 17.6556L98.7076 12.8281L98.6846 17.6418L97.205 17.6347L97.2393 10.4537L98.7189 10.4607L101.586 15.2932L101.609 10.4745L103.084 10.4816ZM108.562 17.6891L106.998 17.6816L107.013 16.5275L108.567 16.535C108.955 16.5368 109.283 16.4512 109.55 16.2782C109.817 16.102 110.019 15.8448 110.155 15.5068C110.295 15.1688 110.366 14.7597 110.368 14.2797L110.37 13.9295C110.372 13.5613 110.334 13.2372 110.256 12.9573C110.182 12.6775 110.07 12.4418 109.919 12.2504C109.769 12.059 109.584 11.9151 109.364 11.8187C109.144 11.719 108.891 11.6684 108.605 11.6671L106.997 11.6594L107.003 10.5003L108.611 10.508C109.091 10.5103 109.529 10.5946 109.926 10.7609C110.327 10.924 110.673 11.1574 110.964 11.4613C111.255 11.7652 111.478 12.128 111.634 12.5496C111.793 12.968 111.872 13.4336 111.869 13.9466L111.868 14.2869C111.865 14.7965 111.782 15.2614 111.619 15.6815C111.459 16.1016 111.232 16.4622 110.938 16.7633C110.648 17.0611 110.3 17.2913 109.894 17.4538C109.492 17.613 109.048 17.6914 108.562 17.6891ZM107.871 10.5045L107.837 17.6856L106.357 17.6785L106.391 10.4974L107.871 10.5045ZM119.771 16.5885L119.765 17.7426L115.943 17.7244L115.948 16.5703L119.771 16.5885ZM116.461 10.5456L116.426 17.7267L114.947 17.7196L114.981 10.5385L116.461 10.5456ZM119.287 13.4839L119.282 14.6084L115.958 14.5925L115.963 13.468L119.287 13.4839ZM119.795 10.5615L119.789 11.7206L115.972 11.7023L115.977 10.5433L119.795 10.5615ZM122.683 10.5753L125.361 10.5881C125.91 10.5908 126.382 10.6752 126.775 10.8415C127.172 11.0078 127.477 11.2526 127.689 11.5758C127.901 11.8991 128.006 12.2958 128.004 12.766C128.002 13.1507 127.935 13.4808 127.802 13.7564C127.673 14.0287 127.489 14.2563 127.251 14.4393C127.017 14.6191 126.742 14.7624 126.426 14.8694L125.956 15.1138L123.628 15.1027L123.624 13.9485L125.355 13.9568C125.615 13.958 125.83 13.913 126.002 13.8218C126.173 13.7305 126.302 13.6029 126.388 13.4389C126.478 13.2749 126.523 13.0844 126.524 12.8674C126.525 12.6373 126.483 12.4381 126.399 12.27C126.314 12.1019 126.185 11.9731 126.011 11.8835C125.837 11.7939 125.619 11.7484 125.355 11.7472L124.157 11.7414L124.128 17.7635L122.649 17.7564L122.683 10.5753ZM126.663 17.7756L125.041 14.5669L126.605 14.5645L128.247 17.7141L128.246 17.7832L126.663 17.7756Z" fill="white"/>
<path d="M21.5677 11.91L22.1527 13.053C22.1797 13.1044 22.2185 13.1486 22.266 13.182C22.3134 13.2154 22.3682 13.237 22.4257 13.245L23.7447 13.434C23.8107 13.4402 23.8735 13.4654 23.9255 13.5066C23.9775 13.5478 24.0165 13.6032 24.0376 13.666C24.0588 13.7289 24.0613 13.7966 24.0448 13.8609C24.0283 13.9251 23.9935 13.9831 23.9447 14.028L22.9857 14.911C22.9437 14.9492 22.9119 14.9973 22.8934 15.0509C22.8749 15.1046 22.8702 15.1621 22.8797 15.218L23.0987 16.473C23.1073 16.539 23.0975 16.606 23.0704 16.6668C23.0433 16.7275 22.9999 16.7795 22.9451 16.8171C22.8903 16.8548 22.8261 16.8766 22.7597 16.8801C22.6933 16.8836 22.6272 16.8687 22.5687 16.837L21.3907 16.2371C21.338 16.2109 21.28 16.1973 21.2212 16.1973C21.1624 16.1973 21.1044 16.2109 21.0517 16.2371L19.8687 16.823C19.8099 16.8543 19.7436 16.8687 19.6772 16.8646C19.6107 16.8606 19.5467 16.8382 19.4921 16.8001C19.4376 16.7619 19.3947 16.7093 19.3681 16.6482C19.3416 16.5871 19.3324 16.5199 19.3417 16.454L19.5727 15.2011C19.5832 15.1455 19.5796 15.088 19.5621 15.0342C19.5446 14.9804 19.5139 14.9318 19.4727 14.893L18.5217 14.001C18.4739 13.9558 18.4401 13.8979 18.4242 13.8341C18.4084 13.7703 18.4111 13.7033 18.4322 13.641C18.4532 13.5787 18.4917 13.5238 18.543 13.4827C18.5943 13.4416 18.6563 13.416 18.7217 13.4091L20.0427 13.2321C20.1003 13.2248 20.1553 13.2038 20.2031 13.1709C20.251 13.138 20.2902 13.0941 20.3177 13.043L20.9177 11.905C20.9504 11.8474 20.9979 11.7995 21.0553 11.7664C21.1127 11.7332 21.1779 11.7159 21.2442 11.7164C21.3105 11.717 21.3754 11.7352 21.4323 11.7692C21.4891 11.8032 21.5359 11.8519 21.5677 11.91Z" fill="white"/>
<path d="M137.827 12.2841L138.412 13.428C138.439 13.4794 138.478 13.5235 138.525 13.5568C138.573 13.59 138.627 13.6114 138.685 13.619L140.004 13.808C140.07 13.8146 140.132 13.8401 140.184 13.8814C140.236 13.9226 140.274 13.9778 140.296 14.0405C140.317 14.1032 140.319 14.1706 140.303 14.2347C140.287 14.2989 140.252 14.3569 140.204 14.402L139.245 15.286C139.203 15.3241 139.171 15.3722 139.153 15.4259C139.134 15.4796 139.129 15.5371 139.139 15.593L139.358 16.848C139.367 16.914 139.357 16.981 139.33 17.0418C139.303 17.1025 139.259 17.1545 139.204 17.1921C139.15 17.2298 139.085 17.2516 139.019 17.2551C138.953 17.2586 138.886 17.2437 138.828 17.212L137.65 16.6121C137.597 16.5859 137.539 16.5723 137.48 16.5723C137.422 16.5723 137.364 16.5859 137.311 16.6121L136.128 17.199C136.069 17.2302 136.003 17.2447 135.936 17.2406C135.87 17.2365 135.806 17.2142 135.751 17.176C135.697 17.1378 135.654 17.0852 135.627 17.0242C135.601 16.9631 135.592 16.8959 135.601 16.83L135.832 15.577C135.842 15.5214 135.839 15.4641 135.821 15.4103C135.804 15.3565 135.773 15.3079 135.732 15.269L134.781 14.376C134.733 14.3305 134.699 14.2722 134.684 14.208C134.668 14.1438 134.671 14.0764 134.693 14.0139C134.714 13.9515 134.753 13.8966 134.805 13.8558C134.857 13.8151 134.92 13.7902 134.986 13.7841L136.307 13.608C136.364 13.6006 136.419 13.5795 136.467 13.5466C136.515 13.5138 136.554 13.47 136.582 13.4189L137.177 12.281C137.21 12.2235 137.257 12.1758 137.314 12.1427C137.372 12.1096 137.437 12.0922 137.503 12.0925C137.569 12.0928 137.634 12.1108 137.691 12.1444C137.748 12.1781 137.795 12.2263 137.827 12.2841Z" fill="white"/>
</svg>
