<svg width="165" height="28" viewBox="0 0 165 28" fill="none" xmlns="http://www.w3.org/2000/svg">
<path d="M164.509 27.479H0.564453V0.870972H164.509L157.636 14.171L164.509 27.479Z" fill="#E59D63"/>
<path d="M51.6659 15.6698C51.6659 15.5416 51.6461 15.4265 51.6067 15.3246C51.5705 15.2193 51.5015 15.124 51.3995 15.0385C51.2976 14.9497 51.1546 14.8626 50.9704 14.7771C50.7863 14.6916 50.5479 14.6028 50.2553 14.5108C49.9298 14.4055 49.6207 14.2872 49.328 14.1556C49.0387 14.0241 48.7822 13.8712 48.5586 13.697C48.3383 13.5194 48.1641 13.3139 48.0358 13.0804C47.9109 12.847 47.8484 12.5757 47.8484 12.2666C47.8484 11.9674 47.9142 11.6962 48.0457 11.4528C48.1772 11.2062 48.3613 10.9958 48.5981 10.8215C48.8348 10.644 49.1143 10.5075 49.4365 10.4122C49.7621 10.3168 50.1188 10.2691 50.5068 10.2691C51.0362 10.2691 51.4982 10.3645 51.8927 10.5552C52.2873 10.7459 52.5931 11.0073 52.8101 11.3394C53.0304 11.6715 53.1406 12.0513 53.1406 12.4787H51.6708C51.6708 12.2683 51.6264 12.0842 51.5376 11.9263C51.4521 11.7652 51.3206 11.6386 51.1431 11.5465C50.9688 11.4545 50.7485 11.4084 50.4822 11.4084C50.2257 11.4084 50.012 11.4479 49.841 11.5268C49.67 11.6024 49.5418 11.706 49.4563 11.8375C49.3708 11.9658 49.328 12.1105 49.328 12.2716C49.328 12.3932 49.3576 12.5034 49.4168 12.602C49.4793 12.7007 49.5714 12.7927 49.693 12.8782C49.8147 12.9637 49.9643 13.0443 50.1418 13.1199C50.3194 13.1955 50.5249 13.2695 50.7584 13.3418C51.1496 13.4602 51.4932 13.5934 51.7892 13.7413C52.0884 13.8893 52.3383 14.0554 52.5389 14.2395C52.7394 14.4236 52.8907 14.6324 52.9926 14.8659C53.0945 15.0993 53.1455 15.364 53.1455 15.6599C53.1455 15.9723 53.0847 16.2518 52.963 16.4984C52.8414 16.745 52.6654 16.9538 52.4353 17.1248C52.2051 17.2958 51.9306 17.4256 51.6116 17.5144C51.2927 17.6032 50.9359 17.6476 50.5413 17.6476C50.1862 17.6476 49.836 17.6016 49.4908 17.5095C49.1455 17.4141 48.8315 17.2711 48.5488 17.0804C48.2693 16.8897 48.0457 16.6464 47.878 16.3504C47.7103 16.0545 47.6264 15.7043 47.6264 15.2999H49.111C49.111 15.5235 49.1455 15.7126 49.2146 15.8671C49.2836 16.0216 49.3806 16.1466 49.5056 16.2419C49.6338 16.3373 49.7851 16.4063 49.9593 16.4491C50.1369 16.4918 50.3309 16.5132 50.5413 16.5132C50.7978 16.5132 51.0082 16.477 51.1727 16.4047C51.3403 16.3324 51.4636 16.2321 51.5426 16.1038C51.6248 15.9756 51.6659 15.8309 51.6659 15.6698ZM59.3827 10.3678V17.549H57.908V10.3678H59.3827ZM61.5923 10.3678V11.5268H55.7329V10.3678H61.5923ZM66.843 11.5959L64.8899 17.549H63.3165L65.9848 10.3678H66.986L66.843 11.5959ZM68.4657 17.549L66.5076 11.5959L66.3498 10.3678H67.3609L70.044 17.549H68.4657ZM68.3769 14.8757V16.0348H64.5841V14.8757H68.3769ZM72.73 10.3678H75.4081C75.9573 10.3678 76.4291 10.45 76.8237 10.6144C77.2215 10.7788 77.5273 11.0221 77.741 11.3443C77.9548 11.6666 78.0616 12.0628 78.0616 12.533C78.0616 12.9177 77.9959 13.2481 77.8643 13.5243C77.7361 13.7972 77.5536 14.0258 77.3169 14.2099C77.0834 14.3907 76.8089 14.5354 76.4932 14.6439L76.0247 14.8905H73.6967L73.6868 13.7364H75.418C75.6778 13.7364 75.8931 13.6904 76.0641 13.5983C76.2351 13.5062 76.3633 13.378 76.4488 13.2136C76.5376 13.0492 76.582 12.8585 76.582 12.6415C76.582 12.4113 76.5392 12.2124 76.4538 12.0447C76.3683 11.877 76.2384 11.7488 76.0641 11.66C75.8898 11.5712 75.6712 11.5268 75.4081 11.5268H74.2096V17.549H72.73V10.3678ZM76.7448 17.549L75.1073 14.348L76.6708 14.3381L78.328 17.4799V17.549H76.7448ZM84.136 10.3678V17.549H82.6613V10.3678H84.136ZM86.3456 10.3678V11.5268H80.4863V10.3678H86.3456ZM94.0279 16.3948V17.549H90.2055V16.3948H94.0279ZM90.6889 10.3678V17.549H89.2092V10.3678H90.6889ZM93.5298 13.2925V14.417H90.2055V13.2925H93.5298ZM94.023 10.3678V11.5268H90.2055V10.3678H94.023ZM96.9112 10.3678H99.5894C100.138 10.3678 100.61 10.45 101.005 10.6144C101.403 10.7788 101.709 11.0221 101.922 11.3443C102.136 11.6666 102.243 12.0628 102.243 12.533C102.243 12.9177 102.177 13.2481 102.046 13.5243C101.917 13.7972 101.735 14.0258 101.498 14.2099C101.265 14.3907 100.99 14.5354 100.674 14.6439L100.206 14.8905H97.8779L97.8681 13.7364H99.5993C99.859 13.7364 100.074 13.6904 100.245 13.5983C100.416 13.5062 100.545 13.378 100.63 13.2136C100.719 13.0492 100.763 12.8585 100.763 12.6415C100.763 12.4113 100.72 12.2124 100.635 12.0447C100.55 11.877 100.42 11.7488 100.245 11.66C100.071 11.5712 99.8524 11.5268 99.5894 11.5268H98.3909V17.549H96.9112V10.3678ZM100.926 17.549L99.2885 14.348L100.852 14.3381L102.509 17.4799V17.549H100.926Z" fill="white"/>
<path d="M35.7657 12.223L36.3567 13.363C36.3838 13.4144 36.4228 13.4586 36.4705 13.4918C36.5182 13.5251 36.5731 13.5463 36.6307 13.554L37.9507 13.736C38.0163 13.7428 38.0786 13.7683 38.1301 13.8094C38.1816 13.8506 38.2202 13.9058 38.2412 13.9683C38.2623 14.0307 38.265 14.0979 38.2489 14.1619C38.2329 14.2258 38.1988 14.2839 38.1507 14.329L37.1957 15.217C37.1547 15.256 37.124 15.3045 37.1065 15.3583C37.0891 15.4121 37.0854 15.4694 37.0957 15.525L37.3207 16.7791C37.3299 16.845 37.3205 16.9121 37.2938 16.973C37.267 17.034 37.2239 17.0863 37.1692 17.1243C37.1145 17.1622 37.0504 17.1842 36.9839 17.1879C36.9174 17.1915 36.8512 17.1767 36.7927 17.145L35.6117 16.553C35.559 16.5268 35.501 16.5132 35.4422 16.5132C35.3834 16.5132 35.3254 16.5268 35.2727 16.553L34.0917 17.145C34.0331 17.1763 33.9671 17.1908 33.9008 17.187C33.8345 17.1832 33.7705 17.1611 33.7159 17.1233C33.6613 17.0855 33.6182 17.0333 33.5914 16.9725C33.5645 16.9118 33.5549 16.8449 33.5637 16.7791L33.7887 15.525C33.7987 15.469 33.7943 15.4113 33.776 15.3574C33.7576 15.3035 33.7259 15.2553 33.6837 15.217L32.7287 14.329C32.6806 14.2839 32.6465 14.2258 32.6305 14.1619C32.6144 14.0979 32.6171 14.0307 32.6382 13.9683C32.6592 13.9058 32.6978 13.8506 32.7493 13.8094C32.8008 13.7683 32.8631 13.7428 32.9287 13.736L34.2487 13.554C34.3064 13.5462 34.3614 13.5249 34.4092 13.4917C34.4571 13.4585 34.4963 13.4144 34.5237 13.363L35.1137 12.223C35.1458 12.1646 35.193 12.1159 35.2503 12.082C35.3077 12.0481 35.3731 12.0302 35.4397 12.0302C35.5063 12.0302 35.5717 12.0481 35.6291 12.082C35.6864 12.1159 35.7336 12.1646 35.7657 12.223Z" fill="white"/>
<path d="M114.141 12.223L114.731 13.363C114.758 13.4143 114.797 13.4584 114.845 13.4916C114.892 13.5248 114.947 13.5461 115.005 13.554L116.325 13.736C116.39 13.7428 116.452 13.7683 116.504 13.8094C116.555 13.8506 116.594 13.9058 116.615 13.9683C116.636 14.0307 116.639 14.0979 116.623 14.1619C116.607 14.2258 116.573 14.2839 116.525 14.329L115.57 15.217C115.529 15.256 115.498 15.3045 115.48 15.3583C115.463 15.4121 115.459 15.4694 115.47 15.525L115.696 16.7791C115.704 16.845 115.695 16.9121 115.668 16.973C115.641 17.0339 115.598 17.0861 115.543 17.124C115.488 17.1619 115.424 17.1839 115.358 17.1876C115.291 17.1913 115.225 17.1766 115.167 17.145L113.986 16.553C113.933 16.5268 113.875 16.5132 113.816 16.5132C113.757 16.5132 113.699 16.5268 113.647 16.553L112.467 17.145C112.408 17.1766 112.342 17.1913 112.275 17.1876C112.209 17.1839 112.145 17.1619 112.09 17.124C112.035 17.0861 111.992 17.0339 111.965 16.973C111.938 16.9121 111.929 16.845 111.938 16.7791L112.164 15.525C112.174 15.4694 112.17 15.4121 112.153 15.3583C112.135 15.3045 112.105 15.256 112.064 15.217L111.109 14.329C111.06 14.2839 111.026 14.2258 111.01 14.1619C110.994 14.0979 110.997 14.0307 111.018 13.9683C111.039 13.9058 111.078 13.8506 111.129 13.8094C111.181 13.7683 111.243 13.7428 111.309 13.736L112.629 13.554C112.686 13.5462 112.741 13.5249 112.789 13.4917C112.836 13.4585 112.875 13.4144 112.903 13.363L113.493 12.223C113.525 12.1656 113.572 12.1178 113.629 12.0846C113.686 12.0513 113.751 12.0338 113.817 12.0338C113.882 12.0338 113.947 12.0513 114.004 12.0846C114.061 12.1178 114.108 12.1656 114.141 12.223Z" fill="white"/>
</svg>
